<svg height="1255pt" preserveAspectRatio="xMidYMid meet" viewBox="0 0 1255 1255" width="1255pt" xmlns="http://www.w3.org/2000/svg"><g transform="matrix(.1 0 0 -.1 0 1255)"><path d="m0 6280v-6260h6275 6275v6260 6260h-6275-6275zm7340 5230c0-6-30-9-72-8l-73 1 65 7c36 4 68 7 73 8 4 1 7-2 7-8zm199-30c26-16-28-11-69 6l-35 14 44-5c24-3 51-10 60-15zm-697-335c5-11-11 2-36 29-25 26-46 51-46 54 0 10 71-62 82-83zm107-8c16 0 57-37 42-37-5 0-16-3-25-6s-16-1-16 6c0 6 5 8 11 4 7-4 10-1 7 7s-14 13-25 11c-11-1-26 5-34 15-13 15-12 16 6 9 11-5 26-9 34-9zm-61-26c9-5-2-10-32-14-49-7-79-1-70 14 7 11 85 12 102 0zm47-21c-3-5-12-10-18-10-7 0-6 4 3 10 19 12 23 12 15 0zm108-17c-7-2-19-2-25 0-7 3-2 5 12 5s19-2 13-5zm-85-18c13-11-20-10-53 1l-40 12 45-5c25-3 46-7 48-8zm136 6c4-5-3-7-14-4-23 6-26 13-6 13 8 0 17-4 20-9zm-429-101c3-6-1-7-9-4-18 7-21 14-7 14 6 0 13-4 16-10zm1385-107c31-51 38-77 18-71-12 4-67 94-68 111 0 21 23 2 50-40zm-1923 31c-3-3-12-4-19-1-8 3-5 6 6 6 11 1 17-2 13-5zm2103-38c-6-6-15-4-24 4-22 17-9 32 14 18 12-8 16-16 10-22zm-1593-22c-3-3-12-4-19-1-8 3-5 6 6 6 11 1 17-2 13-5zm1652-30c3-16 1-17-13-5-19 16-21 34-3 29 6-3 14-13 16-24zm-561-29c-3-3-9 2-12 12-6 14-5 15 5 6 7-7 10-15 7-18zm470-26c18-63 32-171 25-197-3-12-12-22-19-22-10 0-14 16-14 63 0 35-4 67-9 73-5 5-11 37-15 72-7 76 11 82 32 11zm97 10c4-12 2-26-4-32-8-8-11-7-11 5 0 9-3 23-6 32s-1 16 4 16c6 0 14-9 17-21zm-618-81c-3-8-6-5-6 6-1 11 2 17 5 13 3-3 4-12 1-19zm-1805-119c32-12 57-23 55-25-4-5-127 36-127 42 0 7 12 4 72-17zm-35-25c-3-3-12-4-19-1-8 3-5 6 6 6 11 1 17-2 13-5zm1732-71c1-13-3-23-9-23-5 0-10 21-9 48 1 38 2 42 9 22 4-14 8-35 9-47zm637 11c-3-9-6-25-6-37 0-16-3-18-9-9-10 17-2 62 11 62 6 0 7-7 4-16zm24-128c13-17 10-58-5-63-11-3-36 63-27 72s19 6 32-9zm-763-18c-3-8-6-5-6 6-1 11 2 17 5 13 3-3 4-12 1-19zm-58-25c-1-17-3-21-6-10-2 9-9 17-14 17s-9-8-10-17c0-11-2-13-6-5-7 19 4 42 22 42 10 0 15-9 14-27zm61-3c0-5-2-10-4-10-3 0-8 5-11 10-3 6-1 10 4 10 6 0 11-4 11-10zm1110-47c0-15 2-16 10-3 7 11 10 4 10-27 0-23 5-45 10-48 6-3 10-37 10-75 0-51-4-69-15-74-8-3-15-1-15 5 0 5-10 13-23 18-21 8-24 16-25 78-1 73 13 143 28 143 6 0 10-8 10-17zm-4182-88c0-29 0-29-8-5-4 14-8 36-8 50-1 23 0 23 8 5 5-11 8-33 8-50zm1916-200c10-7 15-18 12-23-8-13 20-23 41-15 12 5 14 3 8-7s-4-12 8-7c9 3 19 2 22-4 4-5 26-7 50-5 32 3 45 0 49-11 4-9 13-12 25-8 12 3 31-1 45-11 16-10 35-14 51-10 20 5 23 3 18-11-5-13-3-15 11-10s17 3 12-8c-6-16 9-21 18-6 8 12 56 20 56 9 0-5 9-6 20-3 12 4 20 2 20-5 0-8 11-10 33-6 74 14 129 17 141 7 7-6 26-7 51-1 21 5 43 7 47 4s8 0 8 5c0 6 12 11 27 11 14 0 35 7 45 17 10 9 18 11 18 5s19 0 43 14c67 38 88 45 156 55 36 5 71 14 78 21 10 8 20 8 39-1 14-6 40-11 57-11 18 0 38-5 44-11 8-8 18-6 37 6 15 10 29 15 33 11 3-3 1-6-6-6s-9-4-6-10c3-5 26-10 51-10 30 0 46-5 50-15 4-8 18-15 34-15 15 0 33-7 40-15s18-15 24-14c27 3 47-2 41-11-3-6 5-10 19-10s27-4 31-9c3-5 29-21 58-34 28-13 72-44 97-68s62-57 83-74c20-16 37-34 37-38 0-13 87-117 93-111 4 4 48-13 90-34 4-2 4 3 1 12s-12 16-19 16c-16 0-95 80-95 97 0 6-6 13-12 16-7 2-10 8-6 12 10 11 98-43 98-60 0-7 14-23 30-35 17-12 30-30 30-40s4-20 9-22c42-15 196-171 257-259 57-84 144-241 144-261 0-18-48 40-66 80-15 33-28 40-39 21-12-19 4-54 33-72 17-9 33-28 36-42 3-13 20-44 36-69 17-24 30-50 30-58 0-7 6-23 14-34s17-37 21-57c6-30 4-37-9-37-9 0-16 4-16 9s-15 18-32 28c-37 22-72 50-131 106-40 37-54 46-42 27 3-5-1-10-9-10-23 0-9-58 21-90 14-15 22-33 19-44-3-10 2-29 10-41 14-21 13-22-11-18-34 7-33-20 1-36 34-15 25-25-10-12-35 14-36-10-1-33 31-21 85-76 85-87 0-14-16-10-30 6-15 17-30 20-30 4 0-6-7-17-15-26-10-10-12-19-6-27 10-11 23-78 42-206 11-75 11-84 9-130-1-28 8-285 10-285 1 0 3-67 5-150 2-82 5-179 7-215 3-36 8-235 12-444 4-248 10-385 18-399 8-16 8-22-1-25-13-4-15-42-2-42 19 0 41 45 56 116 18 77 9 149-20 160-11 5-11 10 0 32 7 15 19 39 26 54 7 16 15 26 17 23 3-2 6-44 7-92 2-49 10-114 19-146 29-105 14-344-29-448-28-71-28-65-25-257 2-167-1-176-96-252-14-11-24-3-24 21 0 22-13 31-35 23-11-4-15-14-11-26 4-17 1-19-20-15-29 5-33-13-4-20l21-5-21-35c-15-25-18-39-10-48 5-6 6-16 2-21-4-4 1-2 11 5 10 8 16 20 13 28s-1 11 4 8c16-10 12-93-6-133-9-21-23-51-30-69-8-17-14-43-14-57s-4-26-9-26-11-9-14-20-1-20 4-20 9-9 9-20-5-20-11-20c-7 0-9-11-6-29 4-21 1-34-13-46-18-16-20-17-20-2 0 18-15 23-25 8-3-5 2-16 10-24 8-9 15-19 15-22 0-12-60-64-81-70-23-8-20-31 5-29 22 2 20-23-3-35-10-6-24-25-31-43l-13-33-7 38c-7 36-20 62-20 39 0-7-7-12-15-12-12 0-13-4-5-19 7-14 7-28-1-48-6-15-10-30-9-33 1-2-3-6-9-8s-11 4-11 14c0 16-2 15-16-4-9-13-13-30-9-40 5-12 9-13 12-4 3 6 11 12 19 12 20 0 6-26-22-38-13-7-24-18-24-27 0-20-17-19-30 3-8 14-9 12-6-10 3-15 7-32 10-37 4-5-4-11-16-13-15-2-26-13-32-33-13-40-13-40-31-25-13 10-15 9-15-9 0-12-6-24-14-27s-20-19-26-35c-7-16-16-29-21-29-4 0-20-20-35-45-33-57-52-59-44-5 1 12-2 12-16-3-10-9-19-33-21-52-1-19-7-44-14-57l-13-23-7 25c-4 14-7 18-8 8-1-9-12-25-26-36s-24-26-23-32c2-7-2-14-9-17-6-2-13 6-15 19-5 35-23 22-20-14 4-30 3-31-33-25-32 5-35 4-24-9 21-26 20-51-2-57-13-3-19-12-17-24s-3-18-17-18c-11-1-19-6-18-13 4-16-12-15-47 3s-38 8-9-29l21-27-22-21c-16-15-25-17-33-9-16 16-47 14-47-4 0-8-9-15-20-15-25 0-26-9-3-25 15-12 14-12-11-8-26 5-27 4-15-15s11-24-3-38c-16-16-18-16-28 8-12 25-45 36-36 11 3-7-1-13-11-13-13 0-12-5 8-26l24-27-42 28c-24 15-43 34-43 42 0 10-6 13-16 9-9-3-27-6-40-6-29 0-30-9-5-37 11-12 17-23 14-27-3-3 2-8 11-12 9-3 16-13 16-22 0-10-10-3-25 18l-24 33-10-24c-8-21-10-22-16-6-8 18-35 24-35 6 0-6-7-17-15-25-9-9-12-25-9-43 4-16 1-32-5-35-6-4-11-3-11 3 0 5-13 9-28 9-22-1-32-8-42-31l-13-30-23 28c-18 23-20 31-10 39 9 7 12 24 9 49-6 41-23 51-23 12 0-15-6-25-15-25-11 0-13-8-8-32 6-30 5-32-10-19-21 17-22 2-1-27 9-13 14-26 10-29-3-3-15 11-27 31-11 20-23 36-26 36-6 0 3-69 13-94 5-13 4-17-4-12-6 4-17 26-24 48-11 39-13 40-19 17-7-24-7-24-8-1-1 12-8 25-16 28-12 5-13 10-4 20 7 9 7 18 0 31-6 10-11 12-11 5 0-18-49-35-64-23-16 13-39-48-30-75 5-13 4-16-4-9-6 6-12 21-14 34-1 14-9 26-16 29-7 2-12 0-11-5 3-13-12-43-22-43-4 0-6 6-3 14s0 17-7 22c-8 4-10 3-5-4 4-7 2-12-3-12-6 0-11 9-11 20 0 16-7 20-34 20-25 0-39 7-50 22-9 12-16 19-16 16 0-4 14-28 32-53 17-24 28-48 24-52s-12 1-18 11-19 27-29 37c-11 11-19 24-19 29 0 6-4 10-10 10-18 0-10-29 9-35 13-4 18-12 14-22-4-11-2-14 5-9 7 4 12 3 12-3 0-19-23-24-32-7-5 9-14 14-19 10-6-3-9 0-8 7 1 8-3 25-10 39-11 23-11 23-7 3 5-25-4-29-21-12-9 9-11 8-9-4 1-9 5-20 9-23 12-12 8-86-4-79-6 4-8 13-5 21s-1 14-9 14c-14 0-19 12-16 33 1 7-35 47-43 47-2 0-1-11 1-24 5-24-21-44-33-25-4 7-10 7-18 0-9-8-18-7-31 3-24 17-30 55-10 62 8 4 12 11 9 16-4 6-15 1-26-13l-20-24 5 22c3 13 1 23-5 23-5 0-7 4-3 9 3 5 1 12-5 16-5 3-10 1-10-5 0-7-7-10-15-6-17 6-18 4-9-18 3-9 11-13 16-10 6 4 7-2 3-16-5-14-3-20 3-16s8-2 5-14c-6-24-23-17-23 10 0 14-5 18-16 13-9-3-20 0-25 8-12 19-11 29 3 26 6-1 14 6 16 16 4 19-24 25-30 6-3-9-10-9-27 0-14 8-20 18-17 28 5 13 4 14-9 3-23-19-18-1 11 37 14 19 24 36 22 38s-12-9-23-26c-11-16-25-29-32-29-21 0-25 21-7 41 9 10 15 22 11 25-8 9-27-5-27-20 0-8-10-12-24-11-14 2-27-3-30-11-6-16 10-28 19-14 8 13 35-6 35-23 0-6-3-7-7-4-3 4-15 0-25-10-16-15-18-15-18 0 0 10-5 14-15 11-9-4-15 0-15 10 0 19-16 21-23 4-3-7-6-1-6 15-1 34-21 36-21 2 0-20-5-25-26-25-18 0-25 4-21 14 3 7 1 18-5 24-7 7-4 17 11 34 28 29 8 38-22 10-18-17-24-18-34-7-8 9-9 16-3 20 6 3 10 14 10 23 0 12-3 13-12 4-14-14-32-16-24-3 3 5-1 14-8 20-11 10-16 8-24-5-9-16-11-15-21 4-7 12-19 22-29 23-13 0-13 2-3 6s5 10-15 18c-27 11-26 12 28 12 41 0 66 6 90 22l33 21-45-7c-41-6-44-5-31 10 12 15 11 17-3 17-10 0-16-9-16-25 0-24-2-26-37-19-21 4-44 11-50 17-10 7-13 4-13-11s-5-20-15-16c-8 4-15 2-15-4 0-5-9-12-20-15s-18-1-14 4c3 5 1 9-4 9s-12 9-15 20c-3 12-14 20-27 20-19 0-21 4-16 25 5 19-3 33-41 73-27 27-53 57-59 67-18 32-40 40-58 22-15-14-15-17-1-25 19-10 10-42-12-42-9 0-11 5-7 13 6 9 4 9-8-1-25-20-34 5-11 30 12 14 13 19 3 13-31-17-48-37-43-50 3-9-2-13-16-12-12 1-21 7-21 14s-6 10-13 7c-10-3-14 6-15 33-1 24 2 33 7 25 6-10 10-8 14 8 3 12 3 19 0 16s-14 5-24 17l-18 22-1-22c0-13-4-23-10-23-12 0-13 12-1 43 6 14 6 29 0 38-8 12-12 11-23-4-13-17-46-14-46 5 0 5-5 6-11 2-9-5-10 1-5 20 8 34-17 64-38 47-20-17-28 1-20 44 5 30 4 35-13 35-10 0-23 10-28 23-6 12-18 21-27 21-10-1-14 4-11 12s0 14-6 14-8 6-5 13c2 7-9 23-26 35-33 25-39 42-13 42 15 0 14 2-3 15-16 13-17 16-4 25 13 8 13 12 1 32-12 19-12 24 1 32s12 15-8 50c-13 23-24 53-24 69 0 15-4 27-10 27-5 0-10-9-10-20 0-24-13-26-34-4-18 17-22 39-6 29 6-3 10 1 10 9 0 9 7 16 15 16 10 0 15 10 15 30 0 27 2 29 35 25 20-3 35 0 35 5 0 6-4 10-10 10-5 0-10 7-10 16 0 14-3 14-15 4-13-10-15-9-15 11-1 22-3 20-20-11-11-19-19-43-20-52 0-20-20-25-20-5 0 7-9 18-20 25s-20 19-20 28c0 13 3 14 14 5 12-10 15-8 18 11 2 13 0 34-4 48s-13 58-19 98c-6 43-16 72-23 72-8 0-11-12-8-34 4-32-12-56-26-41-4 4-1 10 6 12 6 3 9 9 6 14-3 6-12 2-21-8-10-13-16-15-19-5-3 6-13 12-22 13-11 0-12 2-4 6 19 8 15 43-6 43-23 0-62-28-62-45 0-16 42-109 58-128 9-11 7-16-13-25-18-8-26-8-31 0-4 6-3 8 3 5 10-6 28 21 20 30-13 12-37-13-37-37 0-29-15-48-28-35-4 3-7 27-8 52-2 44-19 91-39 105-6 4-1 18 11 35l21 28-23 18c-23 17-24 17-44-3-26-26-25-36 6-67 19-19 24-32 20-49-9-36-45-32-52 6-4 16-11 28-17 27-7-1-13 8-15 21-3 17 10 36 48 72 29 28 56 50 61 50s9 7 9 16c0 10 6 14 15 10 8-3 15-1 15 3 0 5 3 18 6 28 5 17 5 17-10-1-8-10-19-15-25-12-5 4-15-2-21-11-9-15-10-13-7 12 8 50-31 91-47 50-9-24-35-17-42 10-4 14-11 24-18 22-6-2-16 7-23 20-13 24-8 53 9 53 5 0 8 6 6 13-1 6 4 23 12 37 12 23 12 24-3 11-17-14-21-10-18 20 1 9-5 19-14 23-11 4-14 12-10 26 3 11 2 20-3 20-17 0-20 100-5 132 8 16 12 35 9 43s-2 15 3 15c4 0 6 14 3 30-2 17-8 30-13 30-17 0-29 38-19 64 7 20 6 28-8 36-12 8-12 10-2 7 11-3 16 4 17 26 1 17 7 33 11 36 5 3 10 32 11 64 0 36-3 56-9 52-6-3-11-1-11 4-2 12-5 26-9 39-1 4-2 11-1 15 7 40 8 97 3 101-14 8-18 186-6 279 4 31 2 47-5 47-6 0-11 12-11 26 0 17-4 23-12 19-7-4-6-1 3 7 16 14 15 94-2 112-5 6-2 17 8 28 11 12 12 18 4 18s-10 7-6 21c5 15 2 22-14 26-23 6-27 18-11 28 6 4 8 10 5 15s-1 19 5 30c10 18 13 19 34 5 12-8 25-12 29-9 3 4 14-2 24-12 17-17 18-17 22 1 2 11-2 21-8 23-17 6-41 32-41 44 0 6 6 6 15-2 22-18 26-9 10 20-8 14-14 19-15 13 0-7-7-13-15-13s-15 6-15 13c-1 7-6 5-14-6-12-15-14-16-20-2-3 8-1 27 5 42 8 21 12 24 19 13 14-22 55-23 74-1 18 20 14 47-5 35-16-9-49 27-49 53 0 13-5 33-10 44-8 13-7 19 0 19 6 0 8 5 3 13-4 6-8 17-9 22-1 6-5 18-9 28s-3 17 4 17c6 0 11 7 11 15s3 14 8 14c22-4 32 3 32 21 0 11-5 20-11 20-8 0-8 5 1 15 15 18 40 20 40 4 0-8 4-8 14 0 10 9 15 8 19-3 4-9-4-23-17-34-20-15-23-26-21-68 2-40 5-48 19-46 10 2 16-3 15-10-4-30 2-71 9-64 4 4 7 11 7 14 1 4 9 22 19 40 9 18 16 43 16 55-5 52 0 77 15 77 18 0 20 17 3 23-10 3-9 9 3 23 9 10 19 26 22 35 6 17 64 32 69 17 2-4 13-5 26-1 14 3 21 11 18 19-4 10 5 14 32 15 20 1 48 5 62 9 24 8 24 8 3 9-31 1-29 21 2 21 14 0 25 4 25 9s19 12 41 16c29 5 38 10 28 16s-2 9 22 9c21 0 45 8 59 20 13 11 29 20 35 20 7 0 18 7 25 15s24 15 39 14c14-1 51 4 81 10s88 16 128 22c73 11 104 31 33 22-25-3-41-1-46 7-6 10-1 11 18 6 14-3 29-2 32 4 12 19-28 23-74 6-58-20-91-21-91-1 0 9 9 15 25 15 14 0 25 5 25 10 0 15 49 32 93 32 20-1 35 3 32 8-11 18-80 7-118-18-25-17-51-25-80-25-28 0-52-7-72-22-51-37-60-40-39-12 10 15 24 27 31 27 16 0 26 17 13 25-5 3-29-14-52-38-24-24-58-52-75-62-18-11-33-23-33-27s-5-8-10-8c-20 0 11 41 47 62 25 15 31 23 22 29-11 6-10 9 3 14 9 4 19 13 22 21 4 11 0 13-19 8-16-4-25-2-25 6s-9 10-26 6c-17-5-23-3-19 4 3 5 0 10-7 10-8 0-21-12-30-27-9-16-31-44-48-63-24-27-30-31-28-15 3 17-2 20-32 17-38-4-48-13-56-54-4-15-10-26-14-23-15 9 14 100 39 122 14 12 22 25 18 29s-13-1-21-11c-24-33-25 0-2 46 31 59 41 147 21 173s-26 17-34-51l-7-58-8 54c-6 39-5 56 4 61 7 5 9 13 4 21-14 23-10 63 8 81 10 10 15 18 12 18-4 0-1 6 5 14 10 12 9 20-5 41-13 20-14 25-3 23 8-2 15 7 17 22 2 14 10 29 18 33 22 13 6 27-26 23-17-2-30 0-30 4 0 10 26 20 53 20 16 0 18 3 9 12-8 8-8 15-1 24 6 7 12 27 14 44 4 26 1 31-12 26-14-6-14-4 2 14 10 11 26 18 34 15 10-3 8 1-4 11-11 8-30 13-42 11-13-2-23 0-23 4 0 5 9 9 20 9 12 0 21 7 21 18 1 9 3 24 4 32s3 23 4 33c0 10 12 22 26 27 35 13 33 40-4 40-16 0-31-5-33-11s-13-9-23-7c-18 4-18 5 5 18 14 7 44 13 67 13 24 0 43 4 43 9 0 4-11 8-24 8-32 0-39 23-15 48 10 12 19 24 19 28s8 16 17 27c15 16 15 18 3 16-9-2-16 1-18 6-1 6 6 10 16 11 36 2 42 4 42 15 0 6-9 9-20 6-27-7-25 5 5 31l25 22 1-23c1-19 2-18 9 6 5 16 16 34 25 41 15 11 14 13-9 26-28 14-36 33-11 24 8-4 15-1 15 6 0 17 28 42 40 35 6-4 7 1 3 11-5 13-2 15 14 10 26-8 66 25 57 48-5 12-2 15 10 10 9-3 16-1 16 5s-4 11-10 11c-5 0-10 4-10 10 0 5 7 6 17 3 12-5 14-3 8 7-5 8-2 17 7 24 8 6 17 19 21 29 3 9 13 17 22 17 8 0 15 4 15 9 0 15 32 22 46 10 16-13 34-3 34 20 0 9 5 22 12 29 9 9 9 12 0 12-7 0-12 7-12 16 0 8-4 12-10 9-20-12-9 5 23 38 17 18 41 39 52 45 12 7 14 12 6 12-11 0-11 3-1 14 6 8 18 12 26 9s14 0 14 6c0 14 68 81 81 81 6 0 7 5 4 10-3 6 3 10 13 10 11 0 22 7 26 15 3 8 13 15 22 15 10 0 14 5 11 14-7 17 20 32 63 35 12 0 20 8 21 19 0 10 3 12 6 5 8-21 23-15 23 10 0 13 3 17 8 11 11-18 109-3 98 14-2 4 15 6 37 5 58-2 93 7 75 19-9 6-3 7 17 3 54-13 102-11 101 4-1 8 13 18 29 23 43 12 135 17 141 7 8-14 24-10 24 6 0 18 9 19 34 0zm699-22c-7-2-21-2-30 0-10 3-4 5 12 5 17 0 24-2 18-5zm-1853-602c0-12-28-22-34-12-3 5-3 11 1 15 9 9 33 7 33-3zm6-42c4-7 0-9-14-5-11 4-23 2-27-4-3-5-11-10-17-10-7 0-6 6 2 15 15 18 46 20 56 4zm-126-88c0-6-4-13-10-16-5-3-10 1-10 9 0 9 5 16 10 16 6 0 10-4 10-9zm-200-65c0-3-4-8-10-11-5-3-10-1-10 4 0 6 5 11 10 11 6 0 10-2 10-4zm-80-151c-7-8-18-15-24-15s-2 7 8 15c25 19 32 19 16 0zm147-61c-3-3-12-4-19-1-8 3-5 6 6 6 11 1 17-2 13-5zm-40-150c24-7 22-24-3-24-8 0-12 5-9 10 3 6-3 10-14 10s-23-4-26-10c-3-5-12-10-18-10-7 0-3 7 7 15 22 16 30 18 63 9zm-88-79c-10-9-48-9-49 0-1 13 44 24 49 13 1-5 1-11 0-13zm81-15c-13-11-28-20-34-20-14 1 32 40 47 40 5 0 0-9-13-20zm4030-25c0-8-4-15-10-15-5 0-10 7-10 15s5 15 10 15c6 0 10-7 10-15zm-4030-15c0-5-7-10-16-10-8 0-12 5-9 10 3 6 10 10 16 10 5 0 9-4 9-10zm-90-10c0-5-5-10-11-10-5 0-7 5-4 10 3 6 8 10 11 10 2 0 4-4 4-10zm79-29c-13-11-26-17-29-14-6 6 30 33 43 33 5 0-1-9-14-19zm-70-205c-2-2-15-7-29-11-25-8-25-8-6 14 13 14 23 18 30 11 5-5 8-11 5-14zm-53-64c-8-9-19-13-22-9-10 9 16 38 28 31 6-4 4-13-6-22zm54-167c0-16-6-25-16-25-11 0-14 5-10 16 3 9 6 20 6 25s5 9 10 9c6 0 10-11 10-25zm70-49c0-16-20-24-20-8 0 4-3 18-7 32-6 23-6 24 10 8 9-9 17-24 17-32zm213-143c-7-2-13-11-13-19s-4-14-10-14c-5 0-10 4-10 8 0 12 22 32 35 31 5 0 4-3-2-6zm211-7c-11-8-40-17-62-20-23-3-47-8-52-11-6-3-10-4-10-1 0 10 41 28 72 32 17 2 33 6 36 9s12 5 21 5c12 0 10-4-5-14zm-374-25c0-6-10-17-22-26-28-19-39 0-12 20 22 17 34 19 34 6zm10-81c0-5-5-10-11-10-5 0-7 5-4 10 3 6 8 10 11 10 2 0 4-4 4-10zm-99-43c-10-9-11-8-5 6 3 10 9 15 12 12s0-11-7-18zm-161-2c0-8-2-15-4-15s-6 7-10 15c-3 8-1 15 4 15 6 0 10-7 10-15zm-34-75c10 0 14-8 12-22-2-13-10-23-18-23-9 0-14 7-12 18 2 10-3 17-14 17-13 0-14 3-5 14 7 8 11 20 10 28-1 7 0 20 1 28 2 8 5-2 7-22 3-26 9-38 19-38zm34 30c0-5-2-10-4-10-3 0-8 5-11 10-3 6-1 10 4 10 6 0 11-4 11-10zm4140-36c0-8-4-14-10-14-5 0-10 9-10 21 0 11 5 17 10 14 6-3 10-13 10-21zm125-190c0-77-16-94-33-36-16 51-15 105 0 120 21 21 34-10 33-84zm82-58c-4-9-11-16-17-16-11 0-14 53-3 64 11 10 27-30 20-48zm-4977-136c0-20 6-31 20-35 11-3 20-11 20-16 0-6-5-7-10-4-20 12-31-49-28-154l3-106 22 40c11 22 33 50 47 62l25 22 21-26c11-14 20-33 20-43 0-9 17-33 37-54 41-40 63-97 63-162 0-23 7-58 15-77 8-20 15-51 16-69 0-28 2-30 9-13 5 11 9 14 9 7 1-7-5-21-11-32-10-16-9-25 5-50 10-16 13-30 8-30-6 0-11-7-11-16s6-14 13-11c18 7 50-79 38-101-7-13-11-11-21 9-7 13-19 27-26 32-16 9-44 65-44 88s-19 28-100 29c-94 1-104-2-133-35-22-27-23-33-11-49 7-11 11-23 8-28-3-4 3-11 13-15 10-3 32-20 48-36 29-28 72-52 87-49 4 1 12-7 18-18 11-21 101-70 130-70 10 0 21 8 25 18 5 13 10 6 22-28 8-24 11-46 6-47-11-4 5-124 27-202 15-54 12-113-8-136-34-41-80-65-135-71-75-9-96-2-155 51-79 71-95 104-96 194 0 58-4 80-18 95-13 14-18 36-18 77 0 68 8 98 21 77 7-11 11-10 18 2 7 10 4 24-9 45-34 56-61 182-55 260 10 118 27 228 41 268 14 37 11 63-6 52-13-8-23 140-16 229 10 122 12 130 24 134 7 2 12 10 12 18 0 9 5 12 10 9 6-3 10-19 10-35zm4873-20c-7-28-13-25-13 6 0 14 4 23 9 20s7-15 4-26zm-4823-85c0-8-4-15-10-15-5 0-10 7-10 15s5 15 10 15c6 0 10-7 10-15zm430-125c0-5-5-10-11-10-5 0-7 5-4 10 3 6 8 10 11 10 2 0 4-4 4-10zm30-284c0-3-4-8-10-11-5-3-10-1-10 4 0 6 5 11 10 11 6 0 10-2 10-4zm-203-168c-3-8-6-5-6 6-1 11 2 17 5 13 3-3 4-12 1-19zm200-675c-3-10-5-4-5 12 0 17 2 24 5 18 2-7 2-21 0-30zm143-418c0-8-4-15-10-15-5 0-10 7-10 15s5 15 10 15c6 0 10-7 10-15zm-23-97c-3-8-6-5-6 6-1 11 2 17 5 13 3-3 4-12 1-19zm182-101c1-5-3-5-9-2-5 3-10 16-9 28 0 21 1 21 9 2 5-11 9-24 9-28zm128 1c-3-8-6-5-6 6-1 11 2 17 5 13 3-3 4-12 1-19zm7-44c3-9 6-25 6-37-1-21-1-21-15 3-8 14-14 31-15 38 0 17 17 15 24-4zm-227-26c-3-7-5-2-5 12s2 19 5 13c2-7 2-19 0-25zm205-73c3-13 1-22-3-19-9 5-13 44-5 44 2 0 6-11 8-25zm-155-47c-3-8-6-5-6 6-1 11 2 17 5 13 3-3 4-12 1-19zm154-17c7-16 16-28 20-26 3 3 4-7 1-21-3-19-7-22-13-12-5 7-9 21-9 31 0 9-4 17-9 17s-11 9-14 20c-8 31 10 24 24-9zm44-105c10 4 15-5 17-33 2-25 8-38 18-39 48-1 69-56 33-85-11-10-14-10-9-1 4 7 2 12-8 12-8 0-18 9-21 20-7 23-21 26-29 8-2-7-4-4-3 7 3 27-17 32-21 5-4-24-17-26-26-4-3 8-2 12 4 9s10-1 10 4c0 6-4 11-9 11-12 0-21 39-11 45 5 3 10 0 12-7 4-10 9-9 21 4 15 15 15 16-4 21-18 5-19 8-7 27 10 15 14 17 16 6 2-8 9-13 17-10zm52-38c-3-7-5-2-5 12s2 19 5 13c2-7 2-19 0-25zm-240-50c-3-8-6-5-6 6-1 11 2 17 5 13 3-3 4-12 1-19zm188-58c3-5 1-10-4-10-6 0-11 5-11 10 0 6 2 10 4 10 3 0 8-4 11-10zm41-35c9-8 11-15 6-15s-15 7-22 15-9 15-6 15c4 0 14-7 22-15zm44-44c0-10 7-24 15-31 20-17 19-32-2-28-24 4-34 19-27 42 4 10 0 22-7 27-11 7-10 9 4 9 10 0 17-8 17-19zm31-114c-10-9-11-8-5 6 3 10 9 15 12 12s0-11-7-18zm3141 1c-7-7-12-8-12-2 0 14 12 26 19 19 2-3-1-11-7-17zm-3052-74c0-8-4-14-10-14-5 0-10 9-10 21 0 11 5 17 10 14 6-3 10-13 10-21zm80-60c0-8-4-12-10-9-5 3-10 10-10 16 0 5 5 9 10 9 6 0 10-7 10-16zm70-94c0-5-2-10-4-10-3 0-8 5-11 10-3 6-1 10 4 10 6 0 11-4 11-10zm145-140c-3-5-14-10-23-10-15 0-15 2-2 10 20 13 33 13 25 0zm2425-25c-7-9-15-13-17-11-7 7 7 26 19 26 6 0 6-6-2-15zm-40-49c0-3-4-8-10-11-5-3-10-1-10 4 0 6 5 11 10 11 6 0 10-2 10-4zm128-48c0-24-4-81-9-128-4-47-11-143-15-215-3-71-8-133-10-137-8-13 18-362 28-381 8-16 17-18 47-13 46 7 246-41 316-77 28-14 66-40 85-59s56-49 81-66c101-68 184-196 183-282-1-68-42-304-70-405-28-99-106-256-189-380-69-103-224-287-300-355-33-29-62-57-65-60-7-10-91-81-130-110-18-14-45-34-59-46-14-11-53-38-86-59s-71-45-85-55c-29-20-162-95-228-129-95-49-123-61-138-61-9 0-28-6-42-14-31-16-201-77-282-100-106-31-423-70-449-57-11 6-50 8-92 5-167-13-571-9-674 6-238 36-394 68-450 91-11 5-51 18-90 30-38 12-74 25-79 30-6 5-17 9-26 9-23 0-79 29-101 51-11 11-30 19-44 19s-25 5-25 10c0 6-7 10-16 10-8 0-13 4-9 9 3 5 0 13-6 17-8 4-9 3-5-4 11-18 0-15-39 11-19 12-35 28-35 35 0 6-12 12-27 12-20 0-24 3-14 9s4 12-23 21c-20 6-36 15-36 19s-18 13-40 20c-30 9-38 15-33 28 4 11 3 14-5 9-7-4-12-2-12 3 0 6-5 11-10 11-15 0-72 41-88 63-7 9-26 24-43 32-19 10-29 23-29 38 0 17-9 26-35 36-30 11-42 23-32 34 1 2-6 16-16 31-11 15-17 37-14 47s2 19-1 19c-4 0-8 10-9 23-1 12-4 43-7 69-3 34 0 50 10 59 11 9 12 14 3 20-13 7-32 107-23 121 3 4 14 8 24 8 12 0 17 5 14 14s-13 12-27 8c-17-4-13 2 16 27 20 18 37 39 37 46s3 15 8 17c4 2 16 21 27 43 18 35 19 43 7 67-11 23-10 35 3 73 8 25 15 57 15 70s5 27 10 30c6 3 10 15 10 25 0 11 6 25 13 31 9 8 12 30 9 63-3 42 1 58 22 89 15 21 24 43 20 48-3 6-3 59 1 118 6 94 10 112 31 136 19 23 23 35 18 65-3 21-2 40 4 43 5 4 7 41 4 88-3 61 0 96 13 138 29 93 33 101 50 95 13-5 13-3 2 19-13 26-16 131-4 144 4 3 4 30 1 59-4 29-3 61 1 71s9 43 12 73c6 90 9 101 22 109 9 6 9 10-2 19s-12 22-6 55c4 23 8 66 9 96 0 42 3 52 15 48 8-4 17-2 20 3s-4 11-15 15c-18 6-30 37-12 34 21-4 42 2 42 12 0 14 29 43 37 36 3-4 14-2 24 4 15 7 19 6 19-6 0-8 9-15 20-15s20-4 20-10c0-5 9-10 19-10 11 0 22-4 25-9 9-14-5-41-21-41-8 0-11-5-8-10 4-6 14-8 24-5 11 3 30-6 51-25 18-16 40-30 47-30 8 0 12-4 9-9-8-12 30-44 43-37 5 4 22-9 36-29 15-19 32-32 38-28s7 1 2-7-1-18 10-26 16-21 12-34c-6-25 20-40 34-19 7 11 9 11 9 1 0-19-20-56-36-65-20-11-17-30 6-45 17-11 20-10 20 7 0 20 35 51 57 51 7 0 22-9 33-20 15-15 18-25 11-42-4-13-6-29-3-37 2-8 0-11-6-7-13 8-22-17-22-60 0-35 8-42 26-24 11 11 74-34 74-53 0-6 7-19 16-28 16-17 15-20-15-36-35-21-37-25-15-44 12-10 20-10 35-1 16 10 19 9 19-8 0-11-12-26-27-34-54-30-55-31-42-59 8-18 20-27 36-27 14 0 37-14 57-35 29-30 36-32 46-20 7 9 29 15 51 15 33 0 41-4 49-25 5-14 16-25 24-23s15 0 15-4c2-24-1-29-20-36-20-8-19-10 14-47 32-36 38-39 63-30 15 6 29 16 32 23 3 11 0 11-14 2-20-12-74 1-74 18 0 15 40 52 56 52 8 0 12 5 9 10-3 6-2 10 4 10 5 0 14-8 20-17 5-10 13-14 18-9 4 5 3 11-4 13s-10 10-7 18c3 7-3 16-15 20-23 7-28 30-8 39 9 3 7 9-5 19-10 8-18 21-18 29 0 20 43 17 67-4 24-22 34-23 27-3-4 8-2 15 4 15s12-5 14-11c3-8 10-5 22 6 17 18 18 18 15-1-3-23 10-54 22-54 5 0 9 10 9 22 0 17 3 19 12 10 33-33 128 17 128 67 0 33 32 25 75-19 21-21 42-37 47-34 10 7 40-10 38-22-1-5 3-10 9-12s11 3 11 12c0 19-5 20 53-2 27-10 48-23 47-28-3-15 17-15 30 1 15 18 36 20 44 3 5-10 7-10 12 0 3 6 17 12 31 12 22 0 24-3 19-24-4-16-1-26 9-30 8-3 15-12 15-20 0-13 4-13 35 0 19 7 43 14 53 14s24 6 30 12c7 7 25 14 40 15s36 4 47 5c17 3 20-3 20-37v-40l43 2c23 1 42-2 42-7s7-7 15-4c10 4 12 15 8 35-5 25-2 30 23 39 23 9 25 13 14 20-8 6-10 10-4 10 5 0 14-4 20-9 5-5 36-2 71 6 54 12 66 20 90 53 31 43 43 49 43 23 1-16 2-16 16 2 8 11 22 19 31 17 8-2 12 1 9 7-4 5 2 15 13 21 13 7 18 16 14 27s-3 14 5 9c7-4 12-2 12 3 0 6 9 11 20 11s20 5 20 11c0 7 10 9 25 5 22-6 25-3 25 18 0 18 6 26 23 28 12 2 21 9 19 17-1 7 5 11 15 9s16-11 14-19c-10-36-13-71-7-94 8-31 26-33 26-2 0 12 5 29 10 37 9 13 12 13 24-3 18-23 61-14 51 10-3 10 3 22 15 30 11 8 20 23 20 34 0 10 7 19 15 19s22 18 31 40 20 40 25 40 9 6 9 14c0 7 17 25 38 39 48 34 95 94 98 125 3 29 49 101 69 109 8 3 27 27 41 53 17 31 35 51 51 55 21 5 23 10 19 45-2 22 0 42 5 46 5 3 9 0 9-5 0-6 7-11 15-11 11 0 14 7 9 25-5 22-2 26 24 31 21 4 29 11 25 20-3 8 0 14 7 14 6 0 8 5 4 11-5 8 9 27 22 29 1 0 2-19 2-42zm-148 12c0-5-5-10-11-10-5 0-7 5-4 10 3 6 8 10 11 10 2 0 4-4 4-10zm-1995-66c-9-9-18-14-21-11-9 9 6 27 22 27 13 0 13-2-1-16zm323-224c-7-10-14-18-15-16-6 6 9 36 18 36 5 0 4-9-3-20zm791-85c0-19-1-18-12 3-7 12-17 19-22 15s-3 0 4 10c16 21 31 7 30-28zm191-23c0-15-2-15-10-2-13 20-13 33 0 25 6-3 10-14 10-23zm-350 3c0-8-2-15-4-15s-6 7-10 15c-3 8-1 15 4 15 6 0 10-7 10-15zm203-5c3-11 1-20-4-20s-9 9-9 20 2 20 4 20 6-9 9-20zm-458 0c3-5 1-10-4-10-6 0-11 5-11 10 0 6 2 10 4 10 3 0 8-4 11-10zm135-30c0-13-1-13-10 0-5 8-10 22-10 30 0 13 1 13 10 0 5-8 10-22 10-30zm230-54-22-21 13 22c11 18 11 25 1 35-6 6-12 16-12 20s10-1 21-13l21-21zm-443-18c-3-8-6-5-6 6-1 11 2 17 5 13 3-3 4-12 1-19zm-1054-90c4-12 4-24 1-27-6-7-24 20-24 37 0 21 17 13 23-10zm2017-38c0-5-2-10-4-10-3 0-8 5-11 10-3 6-1 10 4 10 6 0 11-4 11-10zm-1880-73c8-7 14-19 14-27-1-8-2-23-3-32-1-25-18-22-24 5-3 12-9 32-12 45-8 24 2 28 25 9zm-853-29c-3-8-6-5-6 6-1 11 2 17 5 13 3-3 4-12 1-19zm819-20c-1-18-5-39-9-45-5-7-6-17-2-22 3-5-5-22-18-37-20-23-26-25-45-15-25 13-21 31 8 31 12 0 18 8 18 23 1 38 7 61 22 84 18 28 27 22 26-19zm130-44c-5-13-10-14-18-6-6 6-8 18-4 28 5 13 10 14 18 6 6-6 8-18 4-28zm374 2c0-3-4-8-10-11-5-3-10-1-10 4 0 6 5 11 10 11 6 0 10-2 10-4zm-416-44c2-4-4-8-15-8-10 0-19 4-19 8s6 8 14 8 17-4 20-8zm379-4c12-35-20-50-44-21-12 15-12 16 4 10 19-7 24 9 5 16-7 3-3 6 9 6 12 1 23-5 26-11zm-413-28c0-5-4-10-10-10-5 0-10 5-10 10 0 6 5 10 10 10 6 0 10-4 10-10zm60-15c-7-8-19-15-27-15-10 0-8 6 8 19 27 22 38 19 19-4zm950-33c0-4-9-13-20-20-18-11-20-10-20 8 0 13 7 20 20 20 11 0 20-3 20-8zm-2222-150c2-7-3-12-12-12s-58-42-109-92c-101-101-146-174-167-268-16-76-60-527-60-625-1-79-1-80-19-58-30 36-110 238-136 342-64 258-55 383 32 462 43 39 79 62 188 119 55 28 114 62 132 76 40 31 125 74 137 71 6-2 12-9 14-15zm-151-396c26-24 29-42 10-49-8-3-18-37-25-87-7-45-15-87-19-93-4-7-8-17-9-23-1-7-11-21-22-32-16-16-20-29-15-56 4-24 2-36-6-36-6 0-11 12-11 26 0 18-6 28-20 31-28 7-34 40-26 141 9 111 25 184 38 176 5-3 16 3 24 14 16 24 48 19 81-12z"/><path d="m8325 9453c17-9 32-19 35-23 8-11 50-22 50-13 0 15-66 53-91 53-23-1-23-1 6-17z"/><path d="m8477 9266c48-46 92-82 96-79 9 6-73 100-88 102-5 1-21 15-34 31-13 17-32 30-42 30-14 0 6-25 68-84z"/><path d="m4990 8940c0-24 15-27 24-4 9 22 8 24-9 24-8 0-15-9-15-20z"/><path d="m8620 8925c0-3 20-27 45-53s45-42 45-37 11-7 25-27c29-43 69-71 58-41-12 33-44 73-59 73-7 0-24 16-36 35-24 35-78 70-78 50z"/><path d="m8740 8890c0-5 5-10 10-10 6 0 10 5 10 10 0 6-4 10-10 10-5 0-10-4-10-10z"/><path d="m8770 8840c0-5 5-10 11-10 5 0 7 5 4 10-3 6-8 10-11 10-2 0-4-4-4-10z"/><path d="m5680 8141c0-6-17-8-37-5l-38 4 30-14 30-15-32-1c-22 0-33-5-33-14 0-21-34-29-74-18-28 8-34 7-29-4 3-8 16-14 29-14 17 0 22-4 18-15-5-12 0-14 25-9s37 2 55-15c12-12 25-19 28-16s8-1 11-9c5-12 0-14-26-9-18 3-38 10-44 16-9 6-13 6-13-3s-4-9-12-3c-7 6-24 13-38 15-14 3-33 9-42 13-11 4-18 3-18-3s15-14 33-17c17-4 40-14 49-22 10-9 26-13 38-10 11 3 20 2 20-1 0-4 17-8 37-9s48-5 61-8c19-5 23-3 19 9-9 22 67 33 96 13 13-8 30-11 41-7 15 5 16 9 7 15-27 16 11 23 51 9l38-13-17 24c-10 13-21 25-25 25-5 0-8 7-8 16 0 11 5 14 16 10 39-15 64-18 64-7 0 6 7 11 15 11s15 5 15 10c0 6-7 10-15 10s-15 4-15 8c0 5-6 9-12 10-24 2-43 8-58 17-28 18-80 33-86 24-3-5 3-9 13-9s27-7 37-15c19-14 17-15-20-15-28 0-35-3-24-10 8-5 12-11 10-14-3-2-18 7-35 22-19 16-25 27-17 30 14 4 7 22-9 22-6 0-8-4-4-9 3-5 1-12-5-16-5-3-10 1-10 9 0 12-11 16-45 16-25 0-45-4-45-9zm129-120c7-5 9-11 5-14-5-3-15 1-22 9-14 16-5 18 17 5zm-109-41c0-5-4-10-10-10-5 0-10 5-10 10 0 6 5 10 10 10 6 0 10-4 10-10z"/><path d="m5126 8071c-3-5 3-11 13-14 14-3 18-1 14 9-6 16-19 18-27 5z"/><path d="m7840 8060c-14-4-36-5-50-3-17 3-34-4-55-24-17-15-44-34-60-42-28-14-29-15-7-19 27-4 28-11 5-28-16-12-16-12 5-7 13 3 22 2 21-3-4-22 3-23 39-9l37 15-30-25-30-25h73c40 0 71 4 68 9-9 14 49 21 86 10 18-5 58-11 88-13s45-2 32 1c-26 5-20 23 9 23 16 0 59 32 59 45 0 7-73 25-102 25-32 0-37 14-10 29 9 6 12 11 5 11-6 0-18 3-27 6-11 4-16 1-16-10 0-9-4-16-10-16-5 0-10-8-10-17 0-16-1-15-13 1-10 13-18 15-37 7-18-7-20-10-7-10 9-1 17-5 17-11 0-5-16-9-35-8-42 2-44 10-8 38 18 14 37 20 55 18 20-3 28 0 28 10 0 11-8 13-36 7-31-5-36-4-31 9 7 18-10 19-53 6zm-40-19c0-5-7-11-15-15-15-5-20 5-8 17 9 10 23 9 23-2zm57-27c-16-14-31-24-33-21-5 5 44 47 55 47 3 0-7-12-22-26zm203-55c-14-4-18-8-10-9 9-1 7-5-7-10-13-5-23-14-23-20 0-7-6-8-19 0-25 13-34 13-26 0 3-5 1-10-4-10-6 0-11 5-11 11s-9 8-20 4c-15-5-18-3-14 8 9 24 82 45 129 38 30-5 30-5 5-12zm-150-9c0-5-5-10-11-10-5 0-7 5-4 10 3 6 8 10 11 10 2 0 4-4 4-10zm-65-20c-3-5-15-10-26-10s-17 5-14 10c3 6 15 10 26 10s17-4 14-10z"/><path d="m7989 7949c-10-6-7-9 14-9 29 0 35 5 14 13-8 3-20 1-28-4z"/><path d="m7658 8043c7-3 16-2 19 1 4 3-2 6-13 5-11 0-14-3-6-6z"/><path d="m5940 8020c0-5 7-10 16-10 8 0 12 5 9 10-3 6-10 10-16 10-5 0-9-4-9-10z"/><path d="m7665 8020c-8-13 5-13 25 0 13 8 13 10-2 10-9 0-20-4-23-10z"/><path d="m8402 7948c5-15 28-23 28-10 0 5-7 13-16 16-10 4-14 1-12-6z"/><path d="m5420 7936c0-2 7-7 16-10 8-3 12-2 9 4-6 10-25 14-25 6z"/><path d="m8208 7913c6-2 18-2 25 0 6 3 1 5-13 5s-19-2-12-5z"/><path d="m5187 7904c-4-4-4-10-2-14 6-10 45 0 45 11 0 10-33 12-43 3z"/><path d="m8138 7893c12-2 30-2 40 0 9 3-1 5-23 4-22 0-30-2-17-4z"/><path d="m8388 7883c7-3 16-2 19 1 4 3-2 6-13 5-11 0-14-3-6-6z"/><path d="m8430 7884c0-2 13-10 30-19 24-13 29-13 24-1-4 12-54 30-54 20z"/><path d="m5153 7868c-16-26 66-26 112-1 16 10 8 11-43 10-35-1-66-5-69-9z"/><path d="m8605 7851c4-14 2-21-7-21-10 0-9-3 2-10 22-14 43-13 33 3-4 6-8 18-8 26s-6 16-14 19c-9 3-11-1-6-17z"/><path d="m8418 7853c7-3 16-2 19 1 4 3-2 6-13 5-11 0-14-3-6-6z"/><path d="m8540 7835c12-13 28-21 33-18 6 4 1 11-11 16-12 6-22 14-22 19 0 4-5 8-12 8-6 0-1-11 12-25z"/><path d="m8515 7800c3-5 13-10 21-10s12 5 9 10c-3 6-13 10-21 10s-12-4-9-10z"/><path d="m5840 7770c-55-5-63-7-29-8 106-4 210-36 232-69 4-7 14-13 22-13 7 0 17-9 20-20 4-11 11-17 17-14 5 3 16-3 23-13 10-14 22-18 43-15s33-2 43-15c20-27 45-34 74-21 20 9 28 8 44-6 12-11 21-14 26-7 3 6 1 11-5 11s-30 18-52 40c-23 22-48 40-54 40-7 0-20 10-28 22-9 12-16 18-16 13 0-6-6-3-13 5s-19 16-27 17-46 13-85 26c-84 29-136 35-235 27z"/><path d="m7597 7724c-1-1-20-5-42-8-22-4-44-11-49-16-6-6-16-10-24-10-7 0-38-11-68-25s-57-25-60-25c-20 0-134-101-134-119 0-21 21-21 46-2 15 12 33 21 41 21 7 0 38 14 68 31s59 28 64 25 11 4 14 15 15 23 26 26c12 3 21 9 21 14s3 8 8 7c4-1 21 5 37 14 35 18 158 26 245 15l55-7-50 15c-43 13-192 35-198 29z"/><path d="m5388 7691c-31-10-91-38-135-61-43-24-105-58-137-76-50-27-56-33-36-36 20-2 14-8-35-32-33-16-87-37-120-47-33-9-53-18-44-18 16-1 150 32 182 44 14 6 16 4 10-11-5-14-3-16 13-10 34 14 118 28 159 28 22-1 63-1 91-1 29-1 73 3 98 8 38 7 61 4 124-15 42-13 87-24 100-24s21-3 19-7c-3-5 18-7 46-6 29 1 75 2 103 2l50 1 17 48c9 26 17 62 17 80 0 22 5 32 15 32 25 0 67-25 99-59 17-17 38-31 49-31 17 0 17 1 3 16-28 28-17 29 12 1 15-15 33-27 40-27 17 0 15-10-5-27-17-13-16-14 7-8 28 8 47 8 73 3 32-8 23-23-21-33-45-11-47-25-3-25 14 0 39 11 56 26 35 30 28 51-22 68-18 6-43 21-58 34-14 12-30 20-35 17s-11-1-15 5c-3 5 1 10 9 10s18 5 22 12c5 7 2 9-9 5-10-4-17 0-20 11-4 16-5 15-6 0-1-14-10-18-37-18-19 0-33 4-30 9 4 5-8 13-26 16-17 4-46 15-63 25-60 34-229 61-290 47-11-2-46-8-77-11-32-4-60-11-63-16-5-9-66-29-105-36-8-1-26-6-39-10-20-6-22-4-16 15 4 13 2 21-5 21-6 0-8 5-5 10 4 6 11 8 16 5 5-4 9-2 9 2 0 8 72 43 89 43 6 0 13 5 16 10 9 15-22 11-87-9zm-63-98c-31-22-54-16-25 6 13 11 29 17 34 14s1-12-9-20zm422-9c2-7-6-11-22-10-25 1-31 7-18 20 10 10 36 3 40-10zm40-18c2-23 0-26-13-16-17 15-19 53-2 48 7-3 14-17 15-32zm-97 14c0-5-2-10-4-10-3 0-8 5-11 10-3 6-1 10 4 10 6 0 11-4 11-10zm-433-22c-3-8-6-5-6 6-1 11 2 17 5 13 3-3 4-12 1-19zm266-25c8-45 3-51-21-30-10 10-24 17-30 17-19 0-14 18 10 34 31 22 35 21 41-21zm347 17c0-5-7-10-15-10s-15 5-15 10c0 6 7 10 15 10s15-4 15-10zm-663-16c-3-3-12-4-19-1-8 3-5 6 6 6 11 1 17-2 13-5z"/><path d="m7858 7673c7-3 16-2 19 1 4 3-2 6-13 5-11 0-14-3-6-6z"/><path d="m8625 7650c-3-5-2-10 4-10 5 0 13 5 16 10 3 6 2 10-4 10-5 0-13-4-16-10z"/><path d="m8090 7597c14-6 45-30 70-54 59-55 140-116 146-110 5 5-84 93-126 124-28 21-93 53-107 52-4 0 3-6 17-12z"/><path d="m7620 7582c-25-7-64-22-87-32-41-19-79-18-67 1 9 15-13 10-26-6-7-8-17-12-22-9s-18-2-29-12c-10-9-19-14-19-10s-13-6-30-21c-16-15-40-37-52-48l-23-20 40-6c22-3 49-9 60-13s7 0-8 9c-27 16-29 39-3 29 8-3 17-1 21 5 3 6 16 11 27 11 12 0 41 12 65 26 25 14 50 23 57 21 7-3 18-29 24-59 7-29 23-67 36-83 22-28 29-30 88-30 34-1 68-4 75-8 6-4 15-2 19 4 5 8 9 7 14-2 7-10 16-10 47-1 51 15 85 61 91 125 5 56 18 65 60 43 48-25 73-62 61-92-12-33-12-34 5-34 8 0 16-5 18-12 3-8 9-8 22-1 18 10 42 7 132-16 23-6 62-12 85-15 24-2 52-7 62-11 37-15 14 11-24 28-23 10-56 29-74 43-17 13-37 24-42 24-6 0-16 7-23 15s-20 15-30 15-23 7-31 16c-7 8-21 13-30 11-10-3-20 1-23 8-2 7-21 19-40 26-20 7-36 18-36 24s-10 11-22 12c-11 1-24 6-27 11-3 6-35 20-71 31-74 25-193 26-270 3zm175-72c2-4 2-16-1-28-6-20-6-20-37-2-19 12-40 17-54 14-13-4-23-2-23 4s8 13 18 15c26 7 92 5 97-3zm90-30c-22-24-55-29-35-5 7 8 16 13 20 10 5-3 11-1 15 5 3 5 9 10 12 10s-2-9-12-20z"/><path d="m4580 7569c0-5 5-7 10-4 6 3 10 8 10 11 0 2-4 4-10 4-5 0-10-5-10-11z"/><path d="m6270 7560c0-5 5-10 11-10 5 0 7 5 4 10-3 6-8 10-11 10-2 0-4-4-4-10z"/><path d="m7420 7559c0-5 5-7 10-4 6 3 10 8 10 11 0 2-4 4-10 4-5 0-10-5-10-11z"/><path d="m4565 7539c-4-6-5-13-2-16 7-7 27 6 27 18s-17 12-25-2z"/><path d="m5525 7430c-3-5-1-10 4-10 6 0 11 5 11 10 0 6-2 10-4 10-3 0-8-4-11-10z"/><path d="m4630 7417c0-10 8-17 18-17 9 0 13 4 7 8-5 4-13 11-17 16-5 5-8 2-8-7z"/><path d="m7280 7376c0-8 63-36 79-36 9 0-4 9-28 20-45 21-51 23-51 16z"/><path d="m6559 6696c15-18 45-26 62-15 9 5 4 10-17 14-16 4-35 9-43 11-11 4-11 1-2-10z"/><path d="m6490 6684c11-13 10-16-8-21-23-6-31-43-10-43 8 0 6-5-3-12-8-7-20-20-26-28-10-13-8-16 8-16 10 0 19 7 19 16 0 8 9 26 20 40 16 20 20 22 20 8 0-11 8-18 19-18 19 0 19 2 4 45-11 34-20 45-35 45-17 0-18-2-8-16z"/><path d="m6131 6474c0-11 3-14 6-6 3 7 2 16-1 19-3 4-6-2-5-13z"/><path d="m6120 6440c0-5-7-10-16-10-10 0-14-6-10-15 3-9 0-15-9-15-8 0-15-4-15-10 0-5 4-10 9-10s8-14 7-31c-1-18 3-33 11-36 7-3 13-17 13-31 0-22 43-92 62-100 4-2 5-9 2-16-5-14 35-39 57-34 9 2 14-5 13-19 0-17 5-21 27-21 17 1 29 7 32 18 3 12 20 19 58 25 104 16 116 16 178 10 43-4 70-15 37-15-12 0-16-7-14-22 3-19 54-44 129-62 9-3 38-11 63-20 58-20 94-20 132-2 16 8 42 20 58 26 19 7 26 15 22 26-5 12-1 14 15 9 21-7 21-6 4 21-14 25-24 29-62 31-26 1-51 7-57 13-5 5-24 10-41 10-19 0-39 8-49 19-9 10-31 21-47 25-17 3-28 10-24 16 3 6-1 13-9 16-9 3-16 12-16 19s-8 16-17 20c-17 7-17 8 1 14 13 5 16 10 8 15-6 4-20-4-32-17-12-14-30-23-43-21-12 1-22 3-22 4s-22 3-48 5c-35 2-50-2-54-12-3-8-13-11-23-8-9 3-34-2-55-11-81-33-202-13-207 35-4 43-17 72-43 93-18 14-19 20-8 47 9 26 9 31-3 31-8 0-14-4-14-10zm170-320c0-5-4-10-10-10-5 0-10 5-10 10 0 6 5 10 10 10 6 0 10-4 10-10z"/><path d="m7121 6223c-28-6-90-43-109-66-12-14-9-17 25-25 21-5 48-10 61-10 12 0 36-11 53-23 42-29 116-36 157-15 35 18 45 47 14 39-13-3-28 6-45 26-14 17-30 31-35 31s-14 11-20 25c-12 25-37 30-101 18z"/><path d="m4765 6170c-3-5-2-10 4-10 5 0 13 5 16 10 3 6 2 10-4 10-5 0-13-4-16-10z"/><path d="m6140 6160c0-5 5-10 10-10 6 0 10 5 10 10 0 6-4 10-10 10-5 0-10-4-10-10z"/><path d="m6000 6089c0-5 5-7 10-4 6 3 10 8 10 11 0 2-4 4-10 4-5 0-10-5-10-11z"/><path d="m5570 6079c0-5 5-7 10-4 6 3 10 8 10 11 0 2-4 4-10 4-5 0-10-5-10-11z"/><path d="m6310 6080c-9-6-10-10-3-10 6 0 15 5 18 10 8 12 4 12-15 0z"/><path d="m6273 6060c4-17 2-20-13-15-11 3-30 0-42-7-13-7-32-13-43-13-13 0-19-6-17-16 1-11-9-21-30-28-32-10-32-10-10 6 12 8 22 24 22 34s8 22 18 28c13 8 9 9-20 8-29-2-37-5-33-18 3-9-5-24-20-35-28-21-32-34-10-34 8 0 15-4 15-9 0-15-21-25-29-14-3 6-16 13-29 17-12 4-20 12-17 17 4 5 1 9-5 9-7 0-10 7-6 18 6 16 5 16-8 0-7-10-18-18-24-18-5 0-19-17-29-37-11-21-31-44-44-50-13-7-23-18-21-24 1-6-2-8-8-4s-4 15 6 30c12 18 12 23 2 21-21-3-39-17-33-26 6-10-36-7-53 4-8 5-10 2-6-8 3-9 2-16-4-16-16 0-22 26-9 40 9 10 8 12-5 7-10-4-18-2-18 5s-7 5-17-4-24-13-32-10c-9 3-11 0-6-9 5-8 5-11 0-7-4 4-15 2-24-5-13-10-13-7 2 15 9 15 17 31 17 35 0 12-49-51-50-63 0-14-20-31-40-36-8-2-20-10-27-18-10-13-12-11-13 13 0 15-5 27-11 27s-8-8-4-19c3-11 1-22-5-26-5-3-10 2-11 12 0 10-3 13-6 6-2-7-11-13-19-13-7 0-16-11-20-25-3-14-10-26-15-26-27-5-34-3-35 11-1 24 15 50 31 50 19 0 19 17 0 37-14 13-16 12-21-14-7-35-71-81-80-58-4 8-10 12-16 9-5-3-4-12 3-21 9-10 9-17 2-21-6-4-12-18-13-32-3-38-1-43 14-31 11 9 15 7 19-10 4-14 11-20 21-16 9 4 16 2 16-3 0-6-5-10-11-10s-9-7-6-15c4-8 2-17-2-20-5-3-7-14-4-25 4-15 11-19 25-14 14 4 18 2 14-5-4-6 0-11 8-11 17 0 116-93 116-109 0-5 10-11 23-14 12-4 31-13 42-22 20-16 19-16-5-11l-25 5 25-17c33-22 56-46 62-63 4-12 9-12 27-1 22 13 29 4 10-15-11-11 1-39 33-76 9-11 22-32 28-48 7-16 16-27 20-24 10 6 22-39 15-58-3-7 1-20 10-27 8-7 15-23 15-36 0-17 4-22 15-18 11 5 15-1 16-22 2-49-3-79-13-85-5-3-2-9 7-13 10-3 15-12 11-21-3-8-1-15 4-15s8-12 7-26c-1-15 4-29 11-31 9-4 11 4 7 26-4 24-2 31 10 31 9 0 13-5 10-10-3-6 0-17 8-25s14-28 13-44c-2-23 2-28 16-26 10 2 22-4 28-13 5-9 10-12 10-6 0 7 7 15 16 18 14 5 15 4 4-9-10-12-9-15 6-15 17-1 17-2 4-13-8-7-21-23-28-36-12-21-12-23 2-18 9 4 16 1 16-5s9-3 21 7c20 19 20 19 9-10-12-31-6-60 10-50 8 5 7 11-1 21-9 11-9 14 1 14 7 0 21 11 32 26 25 31 36 24 14-8-18-25-21-64-6-73 6-3 11 0 11 7 1 7 3 23 4 36s10 31 20 40c16 16 17 16 5-6-6-13-9-26-6-30 3-3 6-1 6 5s9 13 19 16c18 4 18 2 8-17-7-11-16-24-21-27-4-4-3-10 3-13 16-10 14-46-4-66-13-14-12-17 6-28 17-11 21-9 29 10 11 27 60 87 60 74 0-5-7-17-16-27-16-17-11-44 6-34 5 3 11 1 14-4 4-5 2-12-4-16s-8-11-4-16c3-5 18 0 35 11 16 12 29 19 29 15 0-3 10-1 23 5 21 11 21 10 3-4-11-9-26-16-33-16s-13-4-13-10c0-9 27-14 55-11 6 0 15-9 20-21 6-12 16-24 24-26 8-3 11 0 7 6-8 13 23 66 48 82 15 10 13 5-7-19-29-35-34-51-15-51 9 0 9-3 0-12-20-20-14-28 19-21 25 5 31 2 36-16 3-12 15-24 27-27 13-3 27-17 33-32l11-27 1 25 2 25 18-22c12-14 27-21 40-18 15 3 19 0 14-8-5-9-3-9 8-1 20 16 69 26 69 15 0-5-4-13-10-16-5-3-10-11-10-16 0-6 4-8 9-4 5 3 23 7 40 9 25 3 32-1 40-23 5-14 10-20 10-13 1 6 7 12 15 12 17 0 40 35 50 74 6 24 9 27 17 15 7-10 9-5 5 19-3 17-8 47-11 65l-5 32 13-34c16-42 33-50 42-20 7 22 8 22 19 2 6-11 17-18 23-16 9 3 10 10 3 22-5 10-6 21-3 25 4 4 6 22 5 41-3 39 12 47 23 13l8-23 4 23c6 29 25 24 30-8 4-29 16-43 13-15-4 38 0 52 15 52 9 0 18-11 21-24 9-36 20-27 16 13-3 26-1 35 7 30 6-4 11-15 12-24 0-9 5-3 10 15 7 22 14 30 24 27 8-4 18 1 21 10s10 13 15 10 9 0 9 5c0 17-20 13-27-5-3-8-12-13-19-10s-16 1-20-5c-3-6-16-9-27-8-12 0-24 0-27-1-12-4-48-11-77-14-37-4-67 19-40 30 9 3 20 3 26 0 5-3 11 0 14 6 3 9 9 8 19-5 13-17 14-16 16 9 3 40 10 41 21 3 8-31 11-31 15 3 0 6 10 12 20 14 10 1 23 9 27 16 7 11 11 11 18-1 7-11 11-10 20 5 6 12 11 14 11 5 0-11 3-11 15-1 10 9 15 9 15 1 0-6 5-11 10-11 6 0 10 12 10 26 0 15 8 33 18 41 16 14 16 14 0 9-10-3-18-1-18 4 0 4 14 11 30 15 23 5 30 12 30 31 0 28-6 30-27 9-8-8-19-12-25-9-6 4-17-1-23-10-12-15-14-15-29-1-15 15-16 14-16-11 0-21-3-24-13-16-16 13-42 14-164 7-69-4-93-3-93 6 0 7-8 2-19-9-10-12-26-22-35-22s-19-7-22-15c-4-8-10-12-15-9s-7 10-4 15c4 5 2 9-4 9-5 0-18 3-28 6-15 6-16 4-5-7 20-21 14-26-28-24-22 1-43-2-46-6-3-5 1-9 8-9s20-5 28-10c13-9 13-11 0-20-11-7 3-10 47-10 35 0 62-3 62-7-3-21 2-33 15-33 35 0 21-16-15-17-27-1-39 3-39 12 0 8-7 11-20 8-11-3-20-11-20-17 0-7-7-13-15-13s-14 7-13 15c2 8-3 17-10 19-7 3-12 1-11-4 4-25-2-33-18-25-10 5-24 7-30 5-7-3-13 0-13 6 0 7-10 9-24 5-32-8-58 6-30 17 14 6 11 8-15 8-22 1-32 4-25 11 5 5 24 6 47 1 31-8 37-6 37 8 0 13 2 13 9 2 6-9 11-10 15-2 10 16 26 14 26-4 0-8 5-15 11-15s9 10 7 23c-2 15-9 21-21 19-14-3-17 1-13 15 5 15-2 21-34 30-32 8-40 8-40-3 0-8 4-14 9-14 6 0 9-9 8-20-1-12-8-20-19-20-14 0-17 6-14 25 4 20 1 25-17 25-20 0-20 0-1 15 15 11 16 15 4 16-8 0-25 2-38 3-13 2-25-1-28-6-3-4 2-8 10-8 9 0 16-4 16-10 0-13 0-13-42 9-21 10-35 21-31 24 3 3-7 5-23 4-20-1-28 2-26 12 2 11-3 10-23-3-23-15-29-14-26 7 0 4-4 7-9 7-6 0-10 6-10 13 0 8-11 19-25 25-20 9-24 17-19 36 4 16 1 25-10 29-10 4-16 19-16 39-1 27-2 30-11 16-5-10-15-18-20-18-15 0 18 43 36 46 8 1 15-3 15-9 0-7 5-4 11 6 6 9 15 15 20 12 5-4 6-12 2-18-4-8-1-7 9 1 11 9 18 10 23 2 3-5 3-10-2-11-4 0 5-5 21-10 20-5 34-4 43 3 12 9 17 5 15-13-2-13 53 1 64 16 10 13 24 16 66 12 109-11 133-16 146-34 8-11 15-14 20-7 4 5 21 11 37 12 17 1 41 4 55 7 59 12 130 17 154 11 19-5 27-15 32-41 3-19 10-35 14-35 19 0 39 13 34 21-3 5 6 5 20-1 22-8 30-5 50 17 20 21 28 24 39 14 12-9 26-2 75 39 33 27 66 50 74 50s21 11 28 25c12 23 11 28-10 50-28 30-33 31-62 6-79-68-72-64-79-44-4 10-2 24 3 31 8 8 6 12-5 12-9 0-29 12-46 26-30 25-31 25-31 5 0-14 9-25 25-31 30-11 34-52 8-79-23-24-109-34-128-15-18 18-31 18-39-1-8-21-126-22-126-1 0 8 6 17 13 19 6 3 2 6-10 6-12 1-26 8-31 17-7 13-12 8-23-27-13-42-16-44-54-46-22-1-35 0-29 3 7 3 10 14 7 24-3 11-9 17-14 14s-7-9-4-14c8-13-25-21-43-10-14 8-14 10-2 11 23 2-31 17-66 18-48 2-84 35-84 79l-1 37-20-27c-19-25-27-28-84-28-53 0-68 4-93 25-19 16-33 21-37 15-15-25-129 28-153 71-14 24-22 28-44 23-21-4-34 1-53 20-14 14-25 32-25 41 0 20-10 19-26-2-12-16-13-16-14-2 0 9-11 21-24 28-37 20-55 69-42 111 19 60 32 76 49 61 23-18 56-91 50-107-3-8-1-14 5-14 11 0 26 55 23 87-1 13 6 26 19 33 15 8 20 8 20-2 1-7 7-26 14-43 11-23 14-26 15-10 3 93 35 115 139 97 36-6 69-17 73-24 7-10 9-10 9 1s16 13 93 7c50-5 121-9 157-11 80-3 151-14 166-26 12-10 156-15 170-6 14 8 96 9 249 1 72-4 167-6 213-5 45 1 82-2 82-6 0-5 5-15 10-23 7-12 13-11 35 10 19 17 28 21 36 13 9-9 15-8 26 3 24 24 42 16 54-26 11-36 10-42-14-73-28-37-48-95-28-83 6 4 11 1 11-8s3-16 8-17c41-4 64-20 75-52 2-6 9-7 16-3 9 6 9 11 0 23-17 20-19 53-2 53 18 0 16 17-3 24-29 11-3 26 35 20 36-6 38-5 44 25 4 18 13 31 22 31 8 0 15 5 15 10 0 6 8 10 18 10 20 0 62 50 62 75 0 8 5 15 10 15 6 0 10 6 10 14s7 17 16 20c10 4 13 2 8-7-5-8-2-7 9 2 16 13 15 16-15 46-18 18-34 28-36 23-2-4-10-8-18-8s-14-4-14-8c0-10-30-9-48 2-6 4-12 3-12-3 0-14-29-21-117-28-89-6-148-7-213-2-25 1-52-1-59-5-7-5-17-1-25 9-12 16-13 16-19 1-8-20-27-21-27-1s-10 19-26-2c-13-17-13-17-14 0 0 21-20 23-20 2 0-8-4-15-10-15-5 0-10 7-10 16 0 13-3 14-15 4-8-7-21-10-30-7-8 4-17 2-20-2-8-14-43-1-48 18-4 13-6 12-12-6-6-19-11-21-26-12-11 5-17 15-13 21s1 9-7 6c-8-2-21-18-29-34-13-27-15-27-18-7-5 32-51 41-73 12l-16-22-7 27c-7 29-27 34-50 11-9-9-17-11-21-5-3 5-21 10-38 10-18 0-48 4-67 10-40 12-181 17-197 7-6-4-18 2-28 13-13 14-22 17-30 10-9-8-17-7-26 2-9 8-46 14-100 14-48 1-95 7-106 13-14 7-23 7-31-1-5-5-16-7-22-3-7 4-42 9-77 11-84 3-136 27-128 57 6 21 6 21-6 2-7-11-17-25-23-30-11-11-103-14-121-4-5 3-33 5-62 4-35 0-50 3-45 10 4 6 0 3-10-7-9-10-22-18-29-18-8 0-7 6 4 18 10 10 17 25 17 33-1 10-3 9-11-3-5-10-20-18-31-18-21 0-21 0 3 26l24 27-27-7c-19-4-28-2-28 5s3 10 6 6c4-3 13 1 21 9 9 8 21 13 28 11 8-4 11 6 8 32-3 29 3 48 23 80 15 22 31 41 36 41 12 0 10-4-12-30-11-13-20-32-20-43 0-16 5-18 27-13 17 5 29 3 34-6 7-10 11-10 21 0 16 16 29 15 22-2-3-8-2-16 3-19s10 2 11 11c6 59 20 92 38 92 17 0 18-12 2-30-7-7 1-4 19 8 17 12 37 22 44 22s21 7 31 17c10 9 20 14 22 12 7-7-6-69-13-64-9 5-7-23 4-48 7-16 9-16 40 3 45 28 59 26 51-6-6-24-6-25 9-10 9 9 23 16 31 16s14 4 14 8c0 5 18 20 40 35 41 27 51 27 25 1-8-9-15-24-15-34s7-25 15-34c8-8 15-17 15-20s-7-3-15 0c-8 4-15 1-15-5s4-11 10-11c5 0 7-13 4-30-4-19-2-30 5-30 6 0 11 4 11 9s9 11 21 14c15 4 19 2 15-9-9-23 12-16 25 8 17 31 35 48 43 40 4-3 4 2 0 12-4 12-9 14-14 6s-10-7-19 4c-7 8-10 20-6 25 3 7 0 8-9 5-19-7-20 0-5 27 5 11 14 17 20 14 5-4 6-11 3-17-5-7-2-8 5-4 7 5 10 15 7 23-6 15 15 43 33 43 6 0 11 9 11 19 0 12 7 18 17 17 10 0 19 7 21 17 2 12-3 17-17 17-12 0-21-4-21-10 0-5-5-10-12-10-6 0-4 8 6 19 10 10 13 21 9 24-5 3-18-8-28-24-11-16-26-29-32-29-15 0-17 36-3 45 6 3 10 0 10-7 0-8 3-9 8-3 13 18 56 50 47 36-5-9-3-12 6-9 8 3 19 14 24 25 6 12 17 28 24 37 20 24 5 19-19-6-21-22-78-38-65-18 3 6 10 8 15 5 4-3 11 2 14 11s2 12-5 9c-6-4-13 2-16 14s-10 21-15 21c-6 0-8-9-5-20zm-80-85c-5-13-23-22-23-11 0 15 14 35 21 31 4-3 6-12 2-20zm-163-31c0-3-7-12-15-20-16-17-18-14-9 10 6 15 24 23 24 10zm188-26c-3-20-8-23-40-20-29 3-38 0-38-12 0-9-4-16-10-16-16 0 11 47 34 58 37 19 58 14 54-10zm-108-24c0-8-5-12-10-9-6 4-8 11-5 16 9 14 15 11 15-7zm-360-29c0-14-7-28-15-32-23-8-33 7-12 18 9 6 17 17 17 24 0 8 2 15 5 15s5-11 5-25zm280-11c-18-21-24-10-9 18 8 14 14 18 17 10 2-7-2-19-8-28zm-385-36c-25-30-26-33-9-39 18-7 18-7-1-14-11-5-28-15-37-23-16-14-18-13-18 6 0 11 5 22 11 24s12 17 12 32c0 17 2 23 7 16 6-9 11-7 19 9 7 11 19 21 27 21 12 0 9-8-11-32zm130 13c7-12-12-24-25-16-11 7-4 25 10 25 5 0 11-4 15-9zm402-33c-3-8-6-5-6 6-1 11 2 17 5 13 3-3 4-12 1-19zm-627 7c0-2-9-9-20-15-16-9-20-8-20 5 0 8 9 15 20 15s20-2 20-5zm-143-37c-3-7-5-2-5 12s2 19 5 13c2-7 2-19 0-25zm164 9c-6-8-8-16-6-19 8-7-16-58-26-58-5 0-6 7-3 15 4 8 1 15-5 15s-11-5-11-12c0-6-2-9-5-6-11 10 12 49 35 63 33 17 34 17 21 2zm-121-29c0-7-6-20-13-29-10-13-14-14-24-3-10 10-9 16 3 28 19 19 34 21 34 4zm790-13c0-8-2-15-4-15s-6 7-10 15c-3 8-1 15 4 15 6 0 10-7 10-15zm-770-54c0-17-18-21-24-6-3 9 0 15 9 15 8 0 15-4 15-9zm116-18c-10-10-19 5-10 18 6 11 8 11 12 0 2-7 1-15-2-18zm-130-70c-10-10-19 5-10 18 6 11 8 11 12 0 2-7 1-15-2-18zm1259-83c3-5 1-10-4-10-6 0-11 5-11 10 0 6 2 10 4 10 3 0 8-4 11-10zm-887-74c6-29-23-17-35 15-12 30-12 30 10 16 12-8 23-22 25-31zm-44-161c-4-8-10-15-15-15-4 0-6 7-3 15 4 8 10 15 15 15 4 0 6-7 3-15zm116-95c-8-5-19-10-25-10-5 0-3 5 5 10s20 10 25 10c6 0 3-5-5-10zm280-174c0-8-7-16-15-20-17-6-18-4-9 18 8 20 24 21 24 2zm-293-58c-3-8-6-5-6 6-1 11 2 17 5 13 3-3 4-12 1-19zm1003-233c0-8-4-15-10-15-5 0-7 7-4 15 4 8 8 15 10 15s4-7 4-15zm-287-21c-6-17-23-9-23 11 0 8 6 12 14 9s12-12 9-20zm170-11c-7-2-19-2-25 0-7 3-2 5 12 5s19-2 13-5zm-589-62c-7-45-24-56-24-15 0 26 18 69 26 61 3-2 2-23-2-46zm27 12c-12-20-14-14-5 12 4 9 9 14 11 11 3-2 0-13-6-23zm179 17c0-5-4-10-10-10-5 0-10 5-10 10 0 6 5 10 10 10 6 0 10-4 10-10zm-140-10c0-5-5-10-11-10-5 0-7 5-4 10 3 6 8 10 11 10 2 0 4-4 4-10zm630 0c0-5-4-10-10-10-5 0-10 5-10 10 0 6 5 10 10 10 6 0 10-4 10-10zm-610-34c0-3-4-8-10-11-5-3-10-1-10 4 0 6 5 11 10 11 6 0 10-2 10-4zm27-16c-1-11-5-20-9-20-10 0-10 4-2 24 8 22 13 20 11-4zm443 10c0-5-4-10-10-10-5 0-10 5-10 10 0 6 5 10 10 10 6 0 10-4 10-10zm-213-66c14-12 22-27 18-33-4-8-13-3-27 14-18 23-21 23-35 9-9-8-15-26-15-39 0-21-3-23-19-14-22 11-25 29-5 29 8 0 20 20 27 45 11 36 15 41 22 27 5-9 20-27 34-38zm-136 28c-11-21-41-48-41-38 0 4 7 18 16 31 19 29 40 34 25 7zm523-28c9-23 8-26-6-18-7 5-9 2-6-8 4-8 0-15-7-15-10 0-11 5-4 19 5 10 7 23 4 28-3 6-2 10 3 10 6 0 13-7 16-16zm-313-41c-9-16-10-16-11-1 0 9 3 25 7 35 7 16 8 17 11 1 2-10-1-25-7-35zm199 12c0-5-5-3-10 5s-10 20-10 25c0 6 5 3 10-5s10-19 10-25zm-120-5c0-9-9-25-21-35-20-19-20-19-11 5 5 14 7 30 5 36s3 11 12 11c8 0 15-8 15-17zm34-20 7-25-15 25c-17 28-21 50-7 35 5-6 12-21 15-35zm93-62c-3-8-6-5-6 6-1 11 2 17 5 13 3-3 4-12 1-19zm-27-83c0-8-4-15-10-15-5 0-10 7-10 15s5 15 10 15c6 0 10-7 10-15z"/><path d="m5509 6055c-8-8-39-24-68-35-65-24-151-78-151-95 0-8-9-17-20-20-12-4-20-15-20-28 0-15-3-18-8-9-12 17-36-34-33-70 1-14-2-28-6-31-9-6-8-98 3-159 3-22 11-35 16-32 6 4 8-1 4-14s-2-24 7-29c8-4 25-33 37-63s26-62 31-70 14-26 21-40c23-48 38-60 59-47s27 32 7 22c-7-4-4 1 7 9 19 16 18 17-13 28-23 9-32 19-32 36 0 13-4 20-10 17-5-3-10 1-10 9s-9 31-21 50c-12 20-18 36-15 36 4 0 2 9-4 20-15 29-3 59 26 66 24 6 33 37 14 49-5 3-10 0-10-8 0-14-31-47-44-47-10 0-5 129 6 159 7 19 5 22-7 17-8-3-15-1-15 4s-7 7-15 4c-8-4-15-1-15 5s4 11 9 11 12 10 15 23l6 22 15-25c8-14 15-22 16-17 1 4 3 12 4 17 1 6 3 16 4 24 0 7 11 24 24 38 12 14 27 34 33 44 6 11 21 21 34 22 17 3 20 6 10 12-8 5 5 6 30 3 37-5 42-4 37 10-4 10-1 17 5 17 15 0 58 48 58 66s-2 18-21-1z"/><path d="m5546 6061c-4-7-5-15-2-18 9-9 19 4 14 18-4 11-6 11-12 0z"/><path d="m4756 6023c-4-15-9-36-12-45-3-10-1-18 4-18s12 19 16 41c8 48 2 64-8 22z"/><path d="m6180 6039c0-5 5-7 10-4 6 3 10 8 10 11 0 2-4 4-10 4-5 0-10-5-10-11z"/><path d="m6415 6006c-36-37-38-56-2-25 12 10 33 28 47 38 21 17 22 20 7 21-10 0-33-15-52-34z"/><path d="m4601 6004c0-11 3-14 6-6 3 7 2 16-1 19-3 4-6-2-5-13z"/><path d="m5870 6001c0-5 5-13 10-16 6-3 10-2 10 4 0 5-4 13-10 16-5 3-10 2-10-4z"/><path d="m7287 5996c-12-9-14-16-8-21 6-3 11-1 11 4 0 6 10 11 23 11 12 0 29 5 37 10 11 7 8 10-15 10-16-1-38-7-48-14z"/><path d="m4640 5990c0-5 4-10 9-10 6 0 13 5 16 10 3 6-1 10-9 10-9 0-16-4-16-10z"/><path d="m4588 5952c-6-44 6-132 15-107 7 21 3 123-6 131-2 3-7-8-9-24z"/><path d="m4682 5941c-14-40-4-46 25-15 24 26 30 44 13 44-5 0-10-6-10-14s-5-18-11-22c-8-4-9 0-4 15 10 32-2 25-13-8z"/><path d="m7271 5954c21-24 32-61 21-68-4-2-22 9-40 25-34 32-44 29-14-4 9-11 11-17 4-13-10 6-11 1-6-21 4-15 11-33 15-39 5-6 6-14 2-17-3-4 1-7 10-7 8 0 18 6 20 13 3 6 6 2 6-10 1-33 21-39 22-6 0 16 3 21 6 13s10-21 16-28c9-11 13-11 19 5 5 11 6 7 3-13-4-21-1-35 10-44 19-16 30-7 20 17-14 32-14 43 1 43 8 0 14-7 14-15 0-17 16-20 25-5 3 6 2 10-4 10-5 0-8 7-7 15 1 9 5 15 9 15h18c5 0 8-4 4-9-3-5 0-13 6-17 8-5 8-8 0-14-9-5-7-10 4-20 13-11 15-10 9 4-7 19 7 21 25 4 11-11 12-10 7 2-3 8-9 22-12 31s-17 22-30 29c-29 16-32 30-4 23 32-8 23 7-10 18-16 6-30 15-30 21 0 5-5 6-10 3-8-5-7-11 1-21 6-8 9-18 5-22s-12 1-17 10c-15 26-40 11-32-20 4-18 3-23-6-17-7 4-11 18-8 31 2 14 0 27-4 30-5 3-9-5-9-17 0-31-16-12-23 28-5 26-3 31 8 26 28-10 15 5-22 27-32 19-35 19-22 4z"/><path d="m8677 5963c-4-3-7-13-7-22 1-13 3-13 11 2 11 19 8 33-4 20z"/><path d="m5820 5945c0-14-3-15-15-5-9 7-17 11-20 8-2-2 4-11 15-21 18-15 19-15 25 4 4 11 4 23 1 26-3 4-6-2-6-12z"/><path d="m6457 5953c-4-3-7-11-7-17s5-5 12 2c6 6 9 14 7 17-3 3-9 2-12-2z"/><path d="m7890 5953c0-6 15-24 33-41 95-91 115-117 122-159 4-24 11-43 16-43s9-4 9-10c0-5-8-10-17-10-16 0-15-3 4-18 12-9 23-30 25-46 5-51 23-39 25 17 3 71-14 154-34 161-9 4-13 9-10 13 6 5-16 37-67 94-13 14-34 28-47 31s-32 9-41 13c-10 4-18 3-18-2z"/><path d="m6412 5915c-16-34-15-40 3-25 23 19 28 5 10-29-8-17-13-31-11-31 3 0 12 14 21 30 13 26 14 34 2 56l-13 25z"/><path d="m4620 5904c0-14 4-23 9-20s7 15 4 26c-7 28-13 25-13-6z"/><path d="m7440 5913c0-13 5-23 10-23 13 0 13 11 0 30-8 12-10 11-10-7z"/><path d="m7191 5904c0-11 3-14 6-6 3 7 2 16-1 19-3 4-6-2-5-13z"/><path d="m7340 5911c0-13 26-32 33-24 8 7-11 33-24 33-5 0-9-4-9-9z"/><path d="m6330 5881c0-5-3-18-6-28-6-16-5-16 9 2 19 23 21 35 7 35-5 0-10-4-10-9z"/><path d="m6541 5883c0-6-4-20-7-30-5-14-4-15 5-7 7 7 11 20 8 30-3 11-5 14-6 7z"/><path d="m6455 5859c-4-6-5-12-2-15 2-3 7 2 10 11 7 17 1 20-8 4z"/><path d="m6827 5856c-3-8-3-24 0-37 6-22 7-22 14-3 11 27 11 54 0 54-5 0-11-6-14-14z"/><path d="m4669 5853c-1-5-1-11 0-15 0-5-6-8-14-8-17 0-20-16-6-24 15-10 43 6 37 20-4 9 2 14 17 14 18 0 19 2 7 10-18 12-40 13-41 3z"/><path d="m8660 5851c0-6 5-13 10-16 6-3 10 1 10 9 0 9-4 16-10 16-5 0-10-4-10-9z"/><path d="m6350 5830c0-19 3-21 12-12s9 15 0 24-12 7-12-12z"/><path d="m6930 5839c0-5 5-7 10-4 6 3 10 8 10 11 0 2-4 4-10 4-5 0-10-5-10-11z"/><path d="m7490 5840c8-5 20-10 25-10 6 0 3 5-5 10s-19 10-25 10c-5 0-3-5 5-10z"/><path d="m6692 5812c-6-17-6-35-1-43 7-11 9-11 9-1 0 7 4 11 9 8 9-6 8 50-1 60-3 3-10-8-16-24z"/><path d="m6445 5820c-3-5 1-10 9-10 9 0 16 5 16 10 0 6-4 10-9 10-6 0-13-4-16-10z"/><path d="m6771 5812c-13-25-14-32-2-32 9 0 23 41 16 48-2 2-8-5-14-16z"/><path d="m6960 5823c0-5 12-16 26-27l26-19-17 27c-16 25-35 35-35 19z"/><path d="m6609 5799c-9-13-18-35-22-48l-6-23 20 21c11 11 29 21 39 21 15 0 20 7 20 28-1 25-1 25-12 7s-12-18-18-1-7 16-21-5z"/><path d="m6856 5807c3-10 9-15 12-12s0 11-7 18c-10 9-11 8-5-6z"/><path d="m7535 5810c3-5 8-10 11-10 2 0 4 5 4 10 0 6-5 10-11 10-5 0-7-4-4-10z"/><path d="m7610 5814c0-13 18-39 24-34 2 3-2 14-10 24-8 11-14 16-14 10z"/><path d="m6305 5790c3-5 8-10 11-10 2 0 4 5 4 10 0 6-5 10-11 10-5 0-7-4-4-10z"/><path d="m6966 5787c3-10 9-15 12-12s0 11-7 18c-10 9-11 8-5-6z"/><path d="m6915 5741c0-39 3-47 13-39 8 7 11 22 6 42-10 51-20 49-19-3z"/><path d="m7790 5784c0-3 9-17 20-31s20-20 20-12c-1 23-40 66-40 43z"/><path d="m7108 5755c-3-14-1-25 3-25 5 0 9 11 9 25s-2 25-4 25-6-11-8-25z"/><path d="m4805 5760c-3-6 1-7 9-4 18 7 21 14 7 14-6 0-13-4-16-10z"/><path d="m5768 5762c-24-5-25-62-2-62 11 0 14 5 10 16-4 9-1 23 5 31 14 16 10 21-13 15z"/><path d="m5864 5755c-25-19-14-19 22 0 16 8 22 15 13 15-8 0-24-7-35-15z"/><path d="m6090 5755c-10-12-10-15 4-15 9 0 16 6 16 13 0 8 4 7 10-3 8-13 10-12 10 3 0 21-23 22-40 2z"/><path d="m6861 5754c0-11 3-14 6-6 3 7 2 16-1 19-3 4-6-2-5-13z"/><path d="m7251 5764c0-7 6-25 14-40l15-29v28c0 16-4 26-9 22-5-3-12 3-14 12-3 10-5 13-6 7z"/><path d="m7520 5759c0-5 9-9 20-9s20 2 20 4-9 6-20 9-20 1-20-4z"/><path d="m6031 5735c0-16 4-39 9-50 7-17 9-16 9 10 0 17-4 39-9 50-7 17-9 16-9-10z"/><path d="m7145 5740c-3-5-1-10 4-10 6 0 11 5 11 10 0 6-2 10-4 10-3 0-8-4-11-10z"/><path d="m4801 5724c0-11 3-14 6-6 3 7 2 16-1 19-3 4-6-2-5-13z"/><path d="m5697 5728c6-11 31-10 37 1 3 5-5 8-18 7-13 0-22-4-19-8z"/><path d="m5907 5734c-9-9 21-36 33-29 5 3 10 14 10 23 0 15-2 15-10 2-8-12-12-12-18-2-5 7-11 9-15 6z"/><path d="m7470 5726c0-8 4-17 9-20 5-4 7 3 4 14-6 23-13 26-13 6z"/><path d="m4750 5715c-8-9-8-15-2-15 12 0 26 19 19 26-2 2-10-2-17-11z"/><path d="m6876 5715c-3-8-1-15 4-15 6 0 10 7 10 15s-2 15-4 15-6-7-10-15z"/><path d="m7061 5714c0-11 3-14 6-6 3 7 2 16-1 19-3 4-6-2-5-13z"/><path d="m5835 5700c3-5 12-7 20-3 21 7 19 13-6 13-11 0-18-4-14-10z"/><path d="m6812 5690c0-14 2-19 5-12 2 6 2 18 0 25-3 6-5 1-5-13z"/><path d="m4688 5693c6-2 18-2 25 0 6 3 1 5-13 5s-19-2-12-5z"/><path d="m7880 5697c0-3 7-21 16-42 8-20 13-42 11-48-3-7-9 4-15 23-10 32-11 33-17 13-4-13-14-23-21-23-8 0-14-4-14-10 0-5 4-10 9-10s11-7 14-14c4-11 1-13-10-9-13 5-14 3-4-15 7-12 18-22 26-22 7 0 15-5 17-11 2-7 13-9 26-5 12 4 20 11 17 16s4 14 16 20c18 10 20 17 14 48-6 35-6 36 9 17 12-16 15-17 16-4 0 20-46 65-52 49-2-7-13-4-31 10-15 12-27 19-27 17z"/><path d="m7856 5675c4-8 10-15 15-15 4 0 6 7 3 15-4 8-10 15-15 15-4 0-6-7-3-15z"/><path d="m4807 5663c-4-3-4-23-1-45 5-27 3-38-6-38-8 0-10-9-6-26 6-24 28-54 39-54 2 0 4 32 4 71 0 55-3 69-13 65-17-7-18 6-2 22 7 7 8 12 2 12s-14-3-17-7z"/><path d="m4690 5650c0-5 5-10 10-10 6 0 10 5 10 10 0 6-4 10-10 10-5 0-10-4-10-10z"/><path d="m6062 5640c7-11 16-20 20-20 5 0 3 9-4 20s-16 20-20 20c-5 0-3-9 4-20z"/><path d="m4867 5597c-8-21 7-39 26-31 9 3 17 10 17 16 0 5-4 6-10 3-5-3-10 1-10 9 0 20-16 21-23 3z"/><path d="m6470 5580c0-5 5-10 10-10 6 0 10 5 10 10 0 6-4 10-10 10-5 0-10-4-10-10z"/><path d="m5930 5319c0-5 5-7 10-4 6 3 10 8 10 11 0 2-4 4-10 4-5 0-10-5-10-11z"/><path d="m5397 5265c-4-8-2-17 3-20 6-4 10 3 10 14 0 25-6 27-13 6z"/><path d="m5377 5213c-10-9-9-23 2-23 5 0 11 7 15 15 5 15-5 20-17 8z"/><path d="m7411 5191c-19-15-32-33-30-40 3-8 11-5 26 9 29 26 31 26 70-12 18-17 36-28 40-24s2 10-4 14c-7 4-19 24-28 45-18 44-29 45-74 8z"/><path d="m7500 5204c0-8 5-12 10-9 6 3 10 10 10 16 0 5-4 9-10 9-5 0-10-7-10-16z"/><path d="m5086 5162c-9-26-1-41 13-26 5 5 5 18 1 29-7 19-7 19-14-3z"/><path d="m7565 5150c3-5 8-10 11-10 2 0 4 5 4 10 0 6-5 10-11 10-5 0-7-4-4-10z"/><path d="m5120 5137c0-8 14-38 30-68 30-54 30-54 28-19-1 19-10 44-20 54-10 11-18 26-18 33s-4 13-10 13c-5 0-10-6-10-13z"/><path d="m8415 5111c-3-5-1-12 5-16 5-3 10 1 10 9 0 18-6 21-15 7z"/><path d="m7527 5089c4-13 8-18 11-10 2 7-1 18-6 23-8 8-9 4-5-13z"/><path d="m7482 5061c13-17 26-30 31-30 12-1-23 47-39 53-10 4-7-4 8-23z"/><path d="m8300 5003c0-28 3-34 10-23 13 20 13 47 0 55-6 4-10-9-10-32z"/><path d="m5116 5017c3-10 9-15 12-12s0 11-7 18c-10 9-11 8-5-6z"/><path d="m6848 5013c6-2 18-2 25 0 6 3 1 5-13 5s-19-2-12-5z"/><path d="m7420 4998c0-15 24-48 36-48 2 0 4 8 4 17s-3 13-7 9c-4-3-13 4-20 16-9 17-12 19-13 6z"/><path d="m5270 4929c0-5 5-7 10-4 6 3 10 8 10 11 0 2-4 4-10 4-5 0-10-5-10-11z"/><path d="m5435 4910c3-5 8-10 11-10 2 0 4 5 4 10 0 6-5 10-11 10-5 0-7-4-4-10z"/><path d="m7372 4880c0-14 2-19 5-12 2 6 2 18 0 25-3 6-5 1-5-13z"/><path d="m6270 4879c0-5 5-7 10-4 6 3 10 8 10 11 0 2-4 4-10 4-5 0-10-5-10-11z"/><path d="m5510 4857c0-8 7-21 16-28 14-11 15-10 12 11-3 26-28 41-28 17z"/><path d="m8215 4860c-3-6 1-7 9-4 18 7 21 14 7 14-6 0-13-4-16-10z"/><path d="m7277 4844c-3-3-3-12 0-20s-1-14-11-14c-9 0-16-4-16-10 0-11 11-13 34-4 9 3 16 17 16 30 0 23-10 31-23 18z"/><path d="m5330 4809c0-5 5-7 10-4 6 3 10 8 10 11 0 2-4 4-10 4-5 0-10-5-10-11z"/><path d="m5380 4800c20-13 57-13 65 0 4 6-11 10-37 10-31 0-39-3-28-10z"/><path d="m5370 4770c0-5 5-10 11-10 5 0 7 5 4 10-3 6-8 10-11 10-2 0-4-4-4-10z"/><path d="m5925 4760c-3-6 1-7 9-4 18 7 21 14 7 14-6 0-13-4-16-10z"/><path d="m7256 4743c-6-14-5-15 5-6 7 7 10 15 7 18s-9-2-12-12z"/><path d="m5650 4737c0-7 9-29 20-50 11-20 20-44 20-52s4-15 9-15c4 0 8 18 8 40 0 30-6 45-28 65-17 14-29 20-29 12z"/><path d="m8155 4740c-3-5 1-10 10-10s13 5 10 10c-3 6-8 10-10 10s-7-4-10-10z"/><path d="m7206 4714c-22-22-20-24 9-11 14 7 25 15 25 20 0 12-18 8-34-9z"/><path d="m5755 4690c3-5 10-10 16-10 5 0 9 5 9 10 0 6-7 10-16 10-8 0-12-4-9-10z"/><path d="m6110 4603c1-18 18-35 24-24 4 6 4 16 1 21-7 12-25 13-25 3z"/><path d="m7122 4560c0-14 2-19 5-12 2 6 2 18 0 25-3 6-5 1-5-13z"/><path d="m6180 4549c0-5 5-7 10-4 6 3 10 8 10 11 0 2-4 4-10 4-5 0-10-5-10-11z"/><path d="m7020 4546c0-8 4-17 9-20 5-4 7 3 4 14-6 23-13 26-13 6z"/><path d="m5610 4516c0-2 7-6 15-10 8-3 15-1 15 4 0 6-7 10-15 10s-15-2-15-4z"/><path d="m6950 4499c0-13-4-18-12-13-7 4-4-2 7-13s33-24 48-27c27-6 27-6 16 16-11 21-47 58-56 58-1 0-3-9-3-21z"/><path d="m7070 4511c0-5 5-13 10-16 6-3 10-2 10 4 0 5-4 13-10 16-5 3-10 2-10-4z"/><path d="m5530 4500c0-5 16-10 35-10s35 5 35 10c0 6-16 10-35 10s-35-4-35-10z"/><path d="m7040 4475c0-9 5-15 11-13s11 8 11 13-5 11-11 13-11-4-11-13z"/><path d="m6878 4424c-3-5-1-20 5-34 8-20 11-22 14-8 5 20-12 55-19 42z"/><path d="m6920 4416c0-9 5-16 10-16 6 0 10 4 10 9 0 6-4 13-10 16-5 3-10-1-10-9z"/><path d="m6965 4420c-3-5 3-10 15-10s18 5 15 10c-3 6-10 10-15 10s-12-4-15-10z"/><path d="m6930 4386c0-2 7-7 16-10 8-3 12-2 9 4-6 10-25 14-25 6z"/><path d="m6850 4355c13-14 25-25 27-25s-4 11-13 25-21 25-27 25 0-11 13-25z"/><path d="m6440 4335c-7-14-10-28-7-31 4-4 11 6 17 21 14 36 7 42-10 10z"/><path d="m5790 4329c0-10 59-39 81-39 6 0 9 6 6 13-2 6-10 11-17 9-7-1-23 4-36 13-27 18-34 19-34 4z"/><path d="m6565 4330c-8-13 3-50 15-50 5 0 8 13 7 30-2 30-11 38-22 20z"/><path d="m7770 4324c0-8 5-12 10-9 6 4 8 11 5 16-9 14-15 11-15-7z"/><path d="m5995 4310c-3-6 1-7 9-4 18 7 21 14 7 14-6 0-13-4-16-10z"/><path d="m6531 4263c0-25 1-26 9-8 12 27 12 35 0 35-5 0-10-12-9-27z"/><path d="m6680 4280c0-5 5-10 11-10 5 0 7 5 4 10-3 6-8 10-11 10-2 0-4-4-4-10z"/><path d="m6142 4259c-7-11-11-23-9-25 7-7 29 24 25 36-2 6-9 1-16-11z"/><path d="m6853 4227c4-10 7-25 7-33s7-14 15-14c20 0 19 7-7 38-13 17-19 20-15 9z"/><path d="m7518 4213c6-2 18-2 25 0 6 3 1 5-13 5s-19-2-12-5z"/><path d="m5965 4190c3-5 8-10 11-10 2 0 4 5 4 10 0 6-5 10-11 10-5 0-7-4-4-10z"/><path d="m7490 4189c0-5 9-9 20-9s20 2 20 4-9 6-20 9-20 1-20-4z"/><path d="m7550 4190c0-5 5-10 10-10 6 0 10 5 10 10 0 6-4 10-10 10-5 0-10-4-10-10z"/><path d="m6630 4186c0-2 7-7 16-10 8-3 12-2 9 4-6 10-25 14-25 6z"/><path d="m7000 4175c-8-9-8-15-2-15 12 0 26 19 19 26-2 2-10-2-17-11z"/><path d="m7590 4175c7-9 15-13 17-11 7 7-7 26-19 26-6 0-6-6 2-15z"/><path d="m6353 4155c-7-7-18-15-25-18-10-3-10-7-1-17 6-7 9-18 7-25-3-7 2-15 10-18 18-7 20 2 6 37-6 17-6 26 0 26s10-7 10-15 4-15 9-15 13-9 16-20c4-11 11-17 17-14 6 4 6 10-1 17-6 6-11 20-11 32 0 16-2 17-9 6s-10-8-13 11c-2 21-5 23-15 13z"/><path d="m6165 4099c-10-15 3-25 16-12 7 7 7 13 1 17-6 3-14 1-17-5z"/><path d="m7450 4100c0-5 7-10 15-10s15 5 15 10c0 6-7 10-15 10s-15-4-15-10z"/><path d="m6910 4070c0-5 5-10 10-10 6 0 10 5 10 10 0 6-4 10-10 10-5 0-10-4-10-10z"/><path d="m7090 3990c0-5 7-7 15-4 8 4 15 8 15 10s-7 4-15 4-15-4-15-10z"/><path d="m6483 3935c-18-20 3-29 27-12 18 13 19 15 5 21-20 7-17 8-32-9z"/><path d="m6881 3914c0-11 3-14 6-6 3 7 2 16-1 19-3 4-6-2-5-13z"/><path d="m4050 6341c0-17 12-41 20-41 10 0 1 38-11 46-5 3-9 1-9-5z"/><path d="m5040 4950c0-19 3-21 12-12s9 15 0 24-12 7-12-12z"/><path d="m4960 4094c0-8 5-12 10-9 6 3 10 10 10 16 0 5-4 9-10 9-5 0-10-7-10-16z"/><path d="m5005 4089c4-6-2-13-13-16-13-3-19-10-15-20 3-8 12-12 19-9 8 3 14 0 14-7s9-23 20-37c19-25 20-25 20-3 0 12-5 25-10 28-6 4-10 14-9 23 3 22-11 52-23 52-5 0-6-5-3-11z"/><path d="m4800 4010c0-5 5-10 10-10 6 0 10 5 10 10 0 6-4 10-10 10-5 0-10-4-10-10z"/><path d="m7276 3435c4-8 10-12 15-9 14 8 10 24-6 24-9 0-12-6-9-15z"/><path d="m7210 3427c0-8 7-20 15-27 12-10 15-10 15 3 0 8-7 20-15 27-12 10-15 10-15-3z"/><path d="m7287 3396c-13-10-15-21-11-45 8-36 24-42 24-8 0 13 4 27 10 33 17 17-3 34-23 20z"/><path d="m7230 3360c0-5 5-10 10-10 6 0 10 5 10 10 0 6-4 10-10 10-5 0-10-4-10-10z"/><path d="m6058 3335c-13-48-4-78 31-99l33-19-11 21c-15 28-14 32 7 32 16 1 16 1 0 14-10 7-18 21-18 30s-6 16-14 16-16 6-19 13c-2 7-6 4-9-8z"/><path d="m6886 3295c-11-8-17-18-13-21 9-9 48 2 72 20 19 15 19 15-10 15-16 0-39-6-49-14z"/><path d="m6657 3276c-4-10 0-14 13-13 14 1 16 4 8 14-13 16-15 16-21-1z"/><path d="m6838 3263c7-3 16-2 19 1 4 3-2 6-13 5-11 0-14-3-6-6z"/><path d="m8095 3260c4-6 10-8 15-5 4 3 10-5 13-16 3-12 10-18 16-14 17 10-6 45-30 45-11 0-17-5-14-10z"/><path d="m6615 3240c-3-5 3-10 14-10 12 0 21 5 21 10 0 6-6 10-14 10s-18-4-21-10z"/><path d="m8225 3156c9-13 23-27 31-30 12-5 12-1-1 24-9 17-22 30-30 30-14 0-13-3 0-24z"/><path d="m8342 2777c-1-100-6-216-11-257-4-41-7-77-5-78 5-7 24 72 34 142 16 107 15 294-1 338-13 35-14 24-17-145z"/><path d="m7995 1880c-21-22-37-42-34-44 2-2 21 16 42 40 48 55 44 57-8 4z"/></g></svg>